<svg width="16" height="16" viewBox="0 0 16 16" fill="none" xmlns="http://www.w3.org/2000/svg">
<path fill-rule="evenodd" clip-rule="evenodd" d="M1.0456 6.4317C1.46285 9.24964 3.04233 11.1259 5.86345 14.1408C6.52903 14.8538 7.38747 15.7076 7.58411 15.8546C7.84505 16.0485 8.16271 16.0485 8.42365 15.8546C8.62029 15.7076 9.47873 14.8538 10.1443 14.1408C12.6818 11.4293 14.3117 9.41397 14.826 7.5C14.9584 7.009 15 6.24092 15 5.72803C14.9962 4.22687 14.2701 2.79139 12.9579 1.70931C11.8763 0.811742 10.6019 0.2707 9.10056 0.0674185C8.74509 0.0205073 7.76942 -0.0170227 7.51226 0.00799698C6.64626 0.0893092 6.15086 0.176877 5.59117 0.348885C4.10876 0.808614 2.86837 1.64989 2.02506 2.77263C1.23091 3.83282 0.883639 5.33784 1.0456 6.4317ZM7.03309 13.049C7.34287 13.3809 7.69923 13.7476 8.00388 14.0515C8.30853 13.7476 8.66489 13.3809 8.97467 13.049L8.97608 13.0475C11.5632 10.283 12.8873 8.54929 13.2808 7.08479L13.2812 7.08356C13.3552 6.80899 13.3999 6.22088 13.4 5.72997C13.3969 4.76932 12.936 3.76508 11.9399 2.94374L11.9399 2.94375L11.9361 2.94055C11.105 2.25081 10.1177 1.82025 8.88907 1.65338C8.78943 1.64047 8.52258 1.62145 8.20908 1.60959C8.06136 1.60401 7.92197 1.60072 7.81013 1.60011C7.73114 1.59967 7.68646 1.60077 7.66859 1.60121C7.66233 1.60136 7.65936 1.60144 7.65935 1.60133L7.6672 1.60049L7.66183 1.60099C6.85798 1.67647 6.48011 1.74969 6.0633 1.87764C4.86628 2.24923 3.92359 2.90951 3.30493 3.7328C2.76228 4.4579 2.53013 5.53403 2.62835 6.19734C2.96273 8.45563 4.17431 9.99393 7.03173 13.0475L7.03309 13.049ZM8 8C8.89215 8 9.61539 7.32843 9.61539 6.5C9.61539 5.67158 8.89215 5 8 5C7.10785 5 6.38462 5.67158 6.38462 6.5C6.38462 7.32843 7.10785 8 8 8Z" fill="#65A16A"/>
</svg>
