<svg width="16" height="16" viewBox="0 0 16 16" fill="none" xmlns="http://www.w3.org/2000/svg">
<g clip-path="url(#clip0_64_277)">
<path fill-rule="evenodd" clip-rule="evenodd" d="M3.06255 1.71172C4.31255 0.749219 5.73755 0.180469 7.2813 0.0304689C7.7188 -0.0132818 8.7438 0.0210934 9.20317 0.0929689C10.0344 0.224218 10.7469 0.449219 11.5157 0.827344C12.3563 1.23984 12.9532 1.66797 13.6438 2.35547C14.3313 3.04609 14.7594 3.64297 15.1719 4.48359C15.4469 5.04297 15.5844 5.40859 15.7344 5.97109C15.9313 6.72109 15.9782 7.13047 15.9782 7.99922C15.9782 8.86797 15.9313 9.27734 15.7344 10.0273C15.5844 10.5898 15.4469 10.9555 15.1719 11.5148C14.7594 12.3555 14.3313 12.9523 13.6438 13.643C12.9532 14.3305 12.3563 14.7586 11.5157 15.1711C10.7438 15.5492 10.05 15.7711 9.18755 15.9117C8.57817 16.0086 7.42192 16.0086 6.81255 15.9117C5.95005 15.7711 5.2563 15.5492 4.48442 15.1711C3.6438 14.7586 3.04692 14.3305 2.3563 13.643C1.6688 12.9523 1.24067 12.3555 0.828174 11.5148C0.450049 10.743 0.228174 10.0492 0.0875488 9.18672C-0.00932617 8.57734 -0.00932617 7.42109 0.0875488 6.81172C0.168799 6.31484 0.334424 5.67109 0.487549 5.25234C0.625049 4.87734 1.00942 4.08984 1.2063 3.78047C1.66255 3.06172 2.45317 2.18047 3.06255 1.71172ZM11.7969 3.04297C10.8844 2.35234 9.83755 1.92734 8.7188 1.79609C7.1188 1.60547 5.51567 2.04922 4.20317 3.04297C3.8813 3.28359 3.28442 3.88047 3.0438 4.20234C1.88442 5.73359 1.4813 7.65547 1.93442 9.48359C2.2188 10.6242 2.75005 11.5648 3.5938 12.4055C4.1313 12.943 4.6813 13.3367 5.32192 13.6398C7.45005 14.6461 9.9063 14.3867 11.7969 12.9555C12.1188 12.7148 12.7157 12.118 12.9563 11.7961C13.2126 11.4617 13.475 11.0305 13.6407 10.6773C14.6469 8.54922 14.3876 6.09297 12.9563 4.20234C12.7157 3.88047 12.1188 3.28359 11.7969 3.04297ZM7.42188 4.35215C7.5125 4.17403 7.66875 4.04903 7.85938 4.00215C8.17813 3.93028 8.49063 4.08653 8.62813 4.38965C8.68125 4.50528 8.6875 4.6334 8.6875 6.26465V8.01465L9.91875 9.24903L9.91919 9.24947C11.2063 10.5397 11.2188 10.5522 11.2188 10.8115C11.2188 11.3115 10.6719 11.6334 10.2188 11.4022C10.1594 11.374 9.50313 10.7397 8.75937 9.99278C7.61875 8.8459 7.40625 8.6209 7.37813 8.51465C7.35625 8.43028 7.34375 7.74903 7.34375 6.44903V4.51153L7.42188 4.35215Z" fill="#65A16A"/>
</g>
<defs>
<clipPath id="clip0_64_277">
<rect width="16" height="16" fill="white"/>
</clipPath>
</defs>
</svg>
