<svg width="280" height="561" viewBox="0 0 280 561" fill="none" xmlns="http://www.w3.org/2000/svg">
<path fill-rule="evenodd" clip-rule="evenodd" d="M167.324 24.1993C167.97 26.2683 169.876 27.5931 171.929 27.5931C172.409 27.5931 172.896 27.5216 173.376 27.3699C203.941 17.768 235.768 11.9622 267.974 10.1223C270.544 9.9746 272.529 7.83994 272.529 5.29485C272.529 5.20068 272.527 5.10824 272.521 5.01407C272.368 2.34574 270.111 0.311067 267.424 0.458726C234.426 2.34574 201.811 8.2928 170.487 18.1331C168.425 18.7812 167.103 20.6903 167.1 22.7454C167.1 23.2273 167.172 23.715 167.324 24.1993ZM61.6809 116.565C60.2545 116.565 58.842 115.936 57.8895 114.726C57.1877 113.838 56.8477 112.78 56.8477 111.728C56.8477 110.298 57.476 108.885 58.6831 107.929C117.723 61.1601 188.558 33.5874 263.529 28.1915C266.145 27.9618 268.502 30.0041 268.69 32.6706C268.698 32.7892 268.702 32.9084 268.702 33.0253C268.701 35.5395 266.761 37.662 264.219 37.8428C191.189 43.101 122.186 69.9627 64.67 115.521C63.7854 116.225 62.7297 116.565 61.6809 116.565ZM18.7143 199.097C17.6917 199.097 16.6597 198.771 15.7856 198.1C14.5442 197.149 13.891 195.713 13.8893 194.259C13.8876 193.23 14.2112 192.196 14.8835 191.318C77.3429 109.488 171.874 59.8134 274.236 55.0226C276.906 54.8796 279.159 56.9631 279.282 59.6308C279.283 59.6486 279.284 59.6664 279.285 59.6842C279.286 59.7148 279.287 59.7452 279.288 59.7755C279.288 59.8049 279.289 59.834 279.289 59.8628C279.286 62.4305 277.271 64.5693 274.684 64.6902C175.176 69.3455 83.277 117.645 22.5527 197.196C21.6025 198.443 20.1668 199.097 18.7143 199.097ZM4.82737 274.892C4.1481 274.892 3.46013 274.746 2.80117 274.443C1.03949 273.625 0.00174022 271.875 0 270.048C0 269.369 0.145598 268.676 0.449556 268.018C41.7049 178.712 123.283 112.256 218.675 90.2419C221.276 89.6472 223.863 91.2697 224.464 93.8741C224.546 94.2392 224.587 94.6043 224.587 94.9653C224.587 97.168 223.073 99.159 220.84 99.6758C128.337 121.021 49.2261 185.474 9.21272 272.084C8.39597 273.85 6.65169 274.892 4.82737 274.892ZM10.0106 344.836C9.6649 344.836 9.31686 344.799 8.96418 344.721C6.71175 344.223 5.17572 342.221 5.17572 339.998C5.17572 339.653 5.21343 339.303 5.29116 338.95C28.3717 234.311 106.565 150.804 209.358 121.017C211.922 120.271 214.596 121.754 215.337 124.321C215.468 124.773 215.53 125.226 215.53 125.675C215.526 127.773 214.152 129.703 212.041 130.314C112.647 159.116 37.0374 239.863 14.7226 341.04C14.2249 343.298 12.2271 344.836 10.0106 344.836ZM30.6176 408.434C27.951 408.434 25.7885 406.268 25.7885 403.596L25.7716 402.585C25.7699 402.535 25.7699 402.484 25.7699 402.433C25.7699 289.391 97.3329 188.571 203.843 151.552C206.369 150.676 209.115 152.013 209.989 154.54C210.863 157.064 209.529 159.82 207.007 160.698C104.38 196.366 35.4281 293.511 35.4281 402.433L35.4461 403.596C35.4461 406.268 33.2847 408.434 30.6176 408.434ZM65.2636 465.322C63.1115 465.322 61.1491 463.87 60.5888 461.684C55.6431 442.361 53.136 422.425 53.136 402.427C53.136 305.629 110.831 219.228 200.123 182.309C202.588 181.288 205.411 182.469 206.427 184.938C206.676 185.541 206.795 186.164 206.795 186.778C206.795 188.68 205.669 190.485 203.805 191.256C118.144 226.674 62.7942 309.562 62.7942 402.427C62.7942 421.614 65.1992 440.743 69.9453 459.28C70.0492 459.684 70.0979 460.091 70.0979 460.488C70.0962 462.644 68.6471 464.608 66.4661 465.17C66.0652 465.273 65.6615 465.322 65.2636 465.322ZM116.403 516.079C114.794 516.079 113.219 515.273 112.304 513.802C91.5174 480.446 80.5296 441.931 80.5296 402.428C80.5296 322.323 124.927 250.185 196.399 214.167C198.778 212.963 201.683 213.927 202.883 216.316C203.234 217.016 203.399 217.76 203.399 218.492C203.396 220.262 202.423 221.965 200.738 222.813C132.548 257.179 90.1872 326.004 90.1872 402.428C90.1872 440.116 100.667 476.857 120.494 508.676C120.992 509.473 121.228 510.357 121.228 511.232C121.23 512.847 120.425 514.426 118.957 515.343C118.161 515.841 117.278 516.079 116.403 516.079ZM199.959 560.694C199.119 560.694 198.27 560.476 197.498 560.015C142.234 527.13 107.904 466.752 107.904 402.444C107.904 338.667 140.218 280.469 194.343 246.762C196.6 245.351 199.581 246.046 200.993 248.318C201.484 249.112 201.721 249.992 201.721 250.861C201.723 252.481 200.913 254.065 199.441 254.982C148.171 286.911 117.561 342.037 117.561 402.444C117.561 463.355 150.081 520.542 202.428 551.695C203.947 552.597 204.791 554.204 204.791 555.853C204.793 556.696 204.575 557.547 204.114 558.325C203.213 559.848 201.606 560.694 199.959 560.694ZM253.855 553.595C253.464 553.595 253.069 553.545 252.672 553.447C183.548 536.021 135.27 473.921 135.27 402.429C135.27 354.376 156.944 309.74 194.734 279.962C196.832 278.305 199.866 278.672 201.514 280.774C202.209 281.662 202.547 282.715 202.547 283.762C202.547 285.194 201.915 286.615 200.702 287.569C165.256 315.499 144.927 357.364 144.927 402.429C144.927 469.479 190.203 527.719 255.027 544.06C257.221 544.614 258.684 546.587 258.682 548.755C258.68 549.143 258.633 549.541 258.535 549.934C257.984 552.131 256.014 553.595 253.855 553.595ZM248.755 523.653C249.279 523.836 249.813 523.922 250.337 523.922C252.336 523.922 254.206 522.666 254.9 520.665C255.08 520.142 255.166 519.609 255.168 519.086C255.168 517.078 253.916 515.202 251.917 514.509C204.309 497.972 172.32 452.93 172.32 402.429C172.32 373.357 182.938 345.377 202.216 323.645C203.034 322.726 203.436 321.579 203.437 320.435C203.44 319.1 202.892 317.771 201.817 316.813C199.823 315.035 196.773 315.218 195 317.215C174.147 340.72 162.662 370.984 162.662 402.429C162.662 457.053 197.261 505.768 248.755 523.653ZM248.314 493.93C248.973 494.236 249.665 494.381 250.346 494.381C252.169 494.381 253.911 493.343 254.729 491.579C255.034 490.922 255.179 490.23 255.182 489.549C255.183 487.722 254.148 485.971 252.386 485.15C220.371 470.245 199.686 437.774 199.686 402.43C199.686 388.473 202.745 375.093 208.781 362.657C209.11 361.978 209.267 361.256 209.27 360.546C209.27 358.752 208.269 357.025 206.55 356.188C204.151 355.017 201.263 356.022 200.096 358.424C193.416 372.189 190.029 386.994 190.029 402.43C190.029 441.525 212.908 477.441 248.314 493.93ZM249.018 462.813C249.857 463.396 250.815 463.677 251.764 463.677C253.293 463.677 254.799 462.949 255.736 461.593C256.319 460.753 256.596 459.789 256.596 458.839C256.596 457.305 255.869 455.798 254.518 454.858C237.325 442.924 227.062 423.323 227.062 402.427C227.062 387.032 232.635 372.158 242.752 360.547C243.55 359.63 243.943 358.496 243.945 357.371C243.947 356.019 243.386 354.676 242.292 353.718C240.286 351.96 237.233 352.166 235.479 354.18C223.823 367.555 217.404 384.69 217.404 402.427C217.404 426.499 229.221 449.075 249.018 462.813ZM214.079 344.526C214.985 345.288 216.089 345.662 217.186 345.662C218.56 345.662 219.929 345.076 220.883 343.937C226.641 337.073 233.305 331.122 240.688 326.24C242.096 325.31 242.861 323.765 242.859 322.19C242.859 321.277 242.602 320.355 242.061 319.536C240.592 317.299 237.594 316.69 235.371 318.16C227.21 323.554 219.85 330.131 213.492 337.707C212.731 338.615 212.36 339.721 212.36 340.818C212.36 342.198 212.944 343.57 214.079 344.526ZM216.505 303.774C217.444 305.124 218.947 305.847 220.473 305.847C221.425 305.847 222.388 305.567 223.229 304.98C229.092 300.889 235.37 297.316 241.888 294.365C243.673 293.557 244.729 291.797 244.731 289.954C244.731 289.287 244.593 288.61 244.301 287.962C243.202 285.526 240.346 284.447 237.912 285.544C230.856 288.739 224.058 292.605 217.711 297.037C216.362 297.977 215.641 299.479 215.64 301.01C215.637 301.964 215.92 302.929 216.505 303.774ZM217.797 270.334C218.655 272.005 220.343 272.965 222.099 272.965C222.84 272.965 223.595 272.792 224.299 272.43C230.734 269.12 237.459 266.279 244.281 263.982C246.301 263.302 247.576 261.415 247.574 259.39C247.572 258.882 247.492 258.363 247.322 257.853C246.471 255.32 243.733 253.956 241.206 254.805C233.927 257.256 226.754 260.289 219.889 263.818C218.221 264.675 217.263 266.373 217.263 268.131C217.265 268.874 217.437 269.627 217.797 270.334ZM224.072 241.871C222.16 241.871 220.353 240.729 219.594 238.846C219.352 238.249 219.238 237.633 219.238 237.029C219.24 235.115 220.382 233.304 222.258 232.543C229.588 229.574 237.129 227.078 244.67 225.124C247.236 224.461 249.884 226.011 250.553 228.602C250.657 229.004 250.707 229.41 250.709 229.81C250.709 231.963 249.262 233.932 247.085 234.498C239.953 236.344 232.817 238.704 225.88 241.516C225.287 241.756 224.673 241.871 224.072 241.871ZM221.871 208.457C222.541 210.493 224.43 211.785 226.459 211.785C226.959 211.785 227.469 211.705 227.967 211.541C234.017 209.545 240.103 207.847 246.054 206.492C248.292 205.984 249.812 203.99 249.815 201.781C249.815 201.426 249.776 201.063 249.692 200.703C249.105 198.096 246.53 196.451 243.915 197.054C237.667 198.475 231.287 200.256 224.949 202.347C222.917 203.018 221.626 204.913 221.628 206.947C221.63 207.447 221.708 207.956 221.871 208.457ZM224.28 178.824C224.874 180.969 226.816 182.378 228.934 182.378C229.359 182.378 229.791 182.321 230.221 182.202C233.444 181.309 236.794 180.469 240.183 179.702C242.421 179.191 243.944 177.2 243.948 174.991C243.948 174.636 243.907 174.275 243.827 173.912C243.238 171.306 240.645 169.667 238.051 170.26C234.518 171.062 231.019 171.939 227.653 172.871C225.512 173.463 224.108 175.408 224.106 177.528C224.106 177.957 224.162 178.391 224.28 178.824Z" fill="white"/>
</svg>
