<svg width="40" height="41" viewBox="0 0 40 41" fill="none" xmlns="http://www.w3.org/2000/svg">
<g id="&#208;&#152;&#208;&#186;&#208;&#190;&#208;&#189;&#208;&#186;&#208;&#176; &#208;&#176;&#208;&#178;&#208;&#176;&#209;&#130;&#208;&#176;&#209;&#128;">
<g id="Group">
<path id="Vector" d="M18.166 0.351562C14.3066 0.726562 10.7441 2.14844 7.61914 4.55469C6.0957 5.72656 4.11914 7.92969 2.97852 9.72656C2.48633 10.5 1.52539 12.4688 1.18164 13.4062C0.798828 14.4531 0.384766 16.0625 0.181641 17.3047C-0.0605469 18.8281 -0.0605469 21.7188 0.181641 23.2422C0.533203 25.3984 1.08789 27.1328 2.0332 29.0625C3.06445 31.1641 4.13477 32.6562 5.85352 34.3828C7.58008 36.1016 9.07227 37.1719 11.1738 38.2031C13.1035 39.1484 14.8379 39.7031 16.9941 40.0547C18.5176 40.2969 21.4082 40.2969 22.9316 40.0547C25.0879 39.7031 26.8223 39.1484 28.752 38.2031C30.8535 37.1719 32.3457 36.1016 34.0723 34.3828C35.791 32.6562 36.8613 31.1641 37.8926 29.0625C38.5801 27.6641 38.9238 26.75 39.2988 25.3438C39.791 23.4688 39.9082 22.4453 39.9082 20.2734C39.9082 18.1016 39.791 17.0781 39.2988 15.2031C38.9238 13.7969 38.5801 12.8828 37.8926 11.4844C36.8613 9.38281 35.791 7.89062 34.0723 6.16406C32.3457 4.44531 30.8535 3.375 28.752 2.34375C26.8301 1.39844 25.0488 0.835938 22.9707 0.507812C21.8223 0.328125 19.2598 0.242188 18.166 0.351562ZM21.5645 6.25781C25.4473 6.92969 28.5488 9.9375 29.3379 13.7891C29.5488 14.7969 29.5645 16.3828 29.3848 17.3906C28.9316 19.9062 27.3691 22.2656 25.2207 23.6797C20.502 26.7891 14.1426 25.1484 11.5098 20.1406C10.7363 18.6797 10.4238 17.3828 10.416 15.6641C10.416 13.1094 11.3457 10.8359 13.1504 8.99219C14.502 7.60938 16.3848 6.60156 18.2832 6.26562C19.1348 6.10938 20.6973 6.10156 21.5645 6.25781ZM22.7363 27.1172C25.8066 27.4531 28.9473 28.3281 32.1504 29.7422C32.7285 30 33.2207 30.2188 33.2363 30.2422C33.2988 30.2969 32.3379 31.4219 31.627 32.125C29.1816 34.5391 26.1973 36.0703 22.6191 36.7344C21.5566 36.9297 18.3691 36.9297 17.3066 36.7344C13.7285 36.0703 10.7441 34.5391 8.29883 32.125C7.58789 31.4219 6.62695 30.2969 6.68945 30.2422C6.77539 30.1562 8.9707 29.2266 9.88477 28.8828C14.377 27.2266 18.4785 26.6641 22.7363 27.1172Z" fill="#65A16A"/>
</g>
</g>
</svg>
