<svg width="160" height="47" viewBox="0 0 160 47" fill="none" xmlns="http://www.w3.org/2000/svg">
<g id="&#208;&#187;&#208;&#190;&#208;&#179;&#208;&#190;" clip-path="url(#clip0_187_811)">
<path id="Union" fill-rule="evenodd" clip-rule="evenodd" d="M2.00155 33.57C2.00155 33.7984 2.18158 33.9836 2.40358 33.9836C2.62564 33.9836 2.80558 33.7984 2.80558 33.57L2.80408 33.4705C2.80408 24.1589 8.54458 15.8541 17.0886 12.8049C17.2986 12.7298 17.4096 12.4942 17.3369 12.2784C17.2641 12.0624 17.0355 11.9481 16.8252 12.0229C7.95787 15.1877 2 23.8067 2 33.4705C2 33.4749 2 33.4793 2.00014 33.4836L2.00155 33.57ZM45.7069 33.9836C45.4849 33.9836 45.3048 33.7984 45.3048 33.57V33.4705C45.3048 24.1585 39.5641 15.8534 31.0201 12.8049C30.8103 12.73 30.6993 12.4942 30.7719 12.2784C30.8446 12.0624 31.0736 11.9481 31.2836 12.0229C40.1511 15.1872 46.109 23.8062 46.109 33.4705V33.57C46.109 33.7984 45.9289 33.9836 45.7069 33.9836ZM4.89879 38.5355C4.94545 38.7224 5.10882 38.8465 5.28799 38.8465C5.32112 38.8465 5.35473 38.8423 5.3881 38.8335C5.56968 38.7855 5.69032 38.6175 5.69046 38.4333C5.69046 38.3993 5.68641 38.3645 5.67776 38.3299C5.28263 36.7453 5.0824 35.11 5.0824 33.4697C5.0824 25.5307 9.69048 18.4447 16.822 15.4168C16.9772 15.3509 17.071 15.1966 17.071 15.034C17.071 14.9815 17.0611 14.9282 17.0403 14.8767C16.9558 14.6656 16.7207 14.5646 16.5155 14.6519C9.08165 17.8081 4.27833 25.1944 4.27833 33.4697C4.27833 35.1793 4.48705 36.8835 4.89879 38.5355ZM42.8223 38.8479C42.789 38.8479 42.7555 38.8437 42.7221 38.8349C42.5405 38.7869 42.4198 38.6189 42.4197 38.4347C42.4197 38.4007 42.4237 38.3659 42.4324 38.3313C42.8265 36.7507 43.0262 35.1156 43.0262 33.4711C43.0262 25.5314 38.4179 18.4454 31.2864 15.4183C31.1311 15.3524 31.0375 15.1981 31.0375 15.0354C31.0375 14.983 31.0473 14.9296 31.0679 14.8781C31.1526 14.6668 31.3877 14.5665 31.593 14.6532C39.0268 17.8086 43.8303 25.1952 43.8303 33.4711C43.8303 35.1849 43.6219 36.8892 43.2114 38.5369C43.1647 38.7238 43.0013 38.8479 42.8223 38.8479ZM9.20425 42.9914C9.28045 43.1172 9.41157 43.186 9.54553 43.186C9.61841 43.186 9.69186 43.1657 9.75817 43.1231C9.88035 43.0447 9.94738 42.9097 9.94723 42.7717C9.94723 42.6969 9.92758 42.6213 9.88614 42.5531C8.23549 39.833 7.36298 36.6921 7.36298 33.4702C7.36298 26.9367 10.8896 21.0529 16.5667 18.115C16.707 18.0425 16.788 17.8969 16.7883 17.7456C16.7883 17.683 16.7745 17.6194 16.7453 17.5596C16.6454 17.3553 16.4035 17.2729 16.2055 17.3759C10.2552 20.455 6.55895 26.622 6.55895 33.4702C6.55895 36.8472 7.47371 40.1398 9.20425 42.9914ZM38.5629 43.186C38.4899 43.186 38.4163 43.1657 38.3501 43.1231C38.2281 43.0445 38.161 42.9096 38.1612 42.7716C38.1612 42.6967 38.1809 42.621 38.2221 42.5529C39.874 39.8338 40.747 36.6932 40.747 33.4702C40.747 26.9367 37.2202 21.0529 31.5432 18.115C31.403 18.0425 31.3219 17.8969 31.3216 17.7456C31.3216 17.683 31.3354 17.6194 31.3647 17.5596C31.4644 17.3553 31.7061 17.2729 31.9044 17.3759C37.8546 20.455 41.5511 26.622 41.5511 33.4702C41.5511 36.8485 40.6357 40.1408 38.9041 42.9916C38.8278 43.1171 38.6968 43.186 38.5629 43.186ZM16.2969 46.942C16.3612 46.9814 16.4319 47 16.5018 47C16.639 47 16.7727 46.9277 16.8478 46.7975C16.8861 46.731 16.9043 46.6583 16.9041 46.5862C16.9041 46.4452 16.8338 46.3078 16.7074 46.2307C12.3493 43.5675 9.64194 38.6786 9.64194 33.4714C9.64194 28.3072 12.1903 23.5946 16.4587 20.865C16.5813 20.7866 16.6487 20.6512 16.6485 20.5127C16.6485 20.4384 16.6288 20.3632 16.5879 20.2953C16.4704 20.1011 16.2222 20.0416 16.0343 20.1622C11.5282 23.0439 8.83791 28.0192 8.83791 33.4714C8.83791 38.969 11.696 44.1306 16.2969 46.942ZM31.2612 46.7974C31.3362 46.9277 31.4701 47 31.6071 47C31.6771 47 31.7476 46.9814 31.812 46.9419C36.413 44.1316 39.271 38.9699 39.271 33.4713C39.271 28.0186 36.5815 23.0433 32.0765 20.1622C31.8883 20.0416 31.6403 20.1012 31.5227 20.2953C31.4819 20.3631 31.4623 20.4384 31.4623 20.5127C31.4621 20.6512 31.5294 20.7865 31.6521 20.8649C35.9194 23.594 38.4671 28.3065 38.4671 33.4713C38.4671 38.6794 35.7598 43.5685 31.4016 46.2306C31.2752 46.3076 31.205 46.4451 31.2049 46.586C31.2047 46.6582 31.2229 46.731 31.2612 46.7974ZM27.1199 46.3946C26.94 46.3946 26.7761 46.2694 26.7302 46.0816C26.7221 46.0478 26.7181 46.014 26.718 45.9808C26.718 45.7955 26.8396 45.6268 27.0223 45.5795C32.419 44.1829 36.1883 39.2037 36.1883 33.4715C36.1883 29.6176 34.4959 26.0387 31.5448 23.6524C31.4441 23.5709 31.3913 23.4494 31.3913 23.3268C31.3913 23.2374 31.4194 23.1473 31.4771 23.0714C31.6143 22.892 31.8668 22.8604 32.0418 23.0018C35.1879 25.5461 36.9923 29.3621 36.9923 33.4715C36.9923 39.5838 32.9732 44.8926 27.2182 46.3819C27.1854 46.3903 27.1524 46.3946 27.1199 46.3946ZM20.8904 46.3806C20.9234 46.389 20.9563 46.3932 20.9888 46.3932C21.1686 46.3932 21.3326 46.2681 21.3785 46.0802C21.3866 46.0466 21.3905 46.0126 21.3907 45.9795C21.3909 45.7941 21.2691 45.6255 21.0864 45.5781C15.6896 44.1811 11.9203 39.2022 11.9203 33.4702C11.9203 29.6176 13.6127 26.0386 16.5637 23.6509C16.6647 23.5693 16.7173 23.4479 16.7173 23.3254C16.7173 23.2359 16.6892 23.1459 16.6313 23.07C16.4941 22.8903 16.2415 22.8589 16.0669 23.0006C12.9207 25.5463 11.1162 29.3622 11.1162 33.4702C11.1162 39.582 15.1355 44.8909 20.8904 46.3806ZM27.413 43.8566C27.2463 43.8566 27.0908 43.7493 27.0332 43.5782C27.0181 43.5335 27.0111 43.4879 27.0109 43.4432C27.0107 43.2715 27.115 43.1111 27.2815 43.0519C31.2461 41.6379 33.9099 37.7873 33.9099 33.4703C33.9099 30.9867 33.0259 28.5946 31.4205 26.7351C31.3526 26.6564 31.3191 26.5582 31.3191 26.4605C31.3191 26.3466 31.3646 26.2328 31.4543 26.1509C31.6202 25.9993 31.8742 26.0145 32.0218 26.1855C33.7578 28.1968 34.7139 30.7838 34.7139 33.4703C34.7139 38.1397 31.8328 42.3043 27.5447 43.8337C27.5012 43.8493 27.4568 43.8566 27.413 43.8566ZM20.5643 43.8336C20.6079 43.8493 20.6524 43.8566 20.696 43.8566C20.8624 43.8566 21.0181 43.7493 21.0759 43.5782C21.0909 43.5335 21.0981 43.4879 21.0982 43.4432C21.0982 43.2715 20.9939 43.1111 20.8275 43.0519C16.864 41.6382 14.2008 37.7876 14.2008 33.4703C14.2008 30.985 15.0848 28.593 16.6898 26.7351C16.7578 26.6565 16.7913 26.5585 16.7914 26.4607C16.7916 26.3466 16.746 26.233 16.6565 26.1511C16.4906 25.9991 16.2366 26.0147 16.089 26.1854C14.3529 28.1948 13.3968 30.7821 13.3968 33.4703C13.3968 38.1401 16.2773 42.3046 20.5643 43.8336ZM27.4113 41.331C27.2597 41.331 27.1145 41.2423 27.0464 41.0915C27.021 41.0353 27.0089 40.9762 27.0087 40.918C27.0087 40.7618 27.0949 40.6121 27.2416 40.5419C29.9068 39.2677 31.6291 36.4918 31.6291 33.4703C31.6291 32.2774 31.3744 31.1335 30.872 30.0699C30.8445 30.0119 30.8316 29.9501 30.8314 29.8897C30.8314 29.7361 30.9146 29.5886 31.0578 29.5171C31.2575 29.4168 31.4981 29.5029 31.595 29.7084C32.1511 30.8853 32.4332 32.151 32.4332 33.4703C32.4332 36.8124 30.5285 39.8829 27.5805 41.2925C27.5256 41.3187 27.468 41.331 27.4113 41.331ZM20.5276 41.2924C20.5824 41.3186 20.64 41.331 20.6967 41.331C20.8485 41.331 20.9935 41.2423 21.0617 41.0915C21.0871 41.0353 21.0991 40.9761 21.0993 40.9179C21.0995 40.7617 21.0133 40.612 20.8666 40.5419C18.2012 39.2676 16.4791 36.4917 16.4791 33.4702C16.4791 32.277 16.7338 31.1331 17.2363 30.07C17.2637 30.0119 17.2768 29.9503 17.277 29.8896C17.277 29.7362 17.1937 29.5886 17.0505 29.517C16.8508 29.4169 16.6104 29.5028 16.5132 29.7081C15.9571 30.8849 15.6751 32.1505 15.6751 33.4702C15.6751 36.8123 17.5799 39.8828 20.5276 41.2924ZM20.8148 38.7063C20.7357 38.7063 20.656 38.6822 20.5862 38.6324C18.938 37.4579 17.9542 35.5279 17.9542 33.47C17.9542 31.9537 18.4886 30.4889 19.459 29.3454C19.605 29.1732 19.8592 29.1557 20.0262 29.306C20.1173 29.3878 20.164 29.5027 20.1638 29.6182C20.1637 29.7144 20.1309 29.8114 20.0645 29.8898C19.2222 30.8823 18.7583 32.1539 18.7583 33.47C18.7583 35.2564 19.6127 36.9321 21.0441 37.9523C21.1566 38.0327 21.217 38.1615 21.217 38.2927C21.217 38.3738 21.194 38.4563 21.1455 38.5281C21.0675 38.644 20.942 38.7063 20.8148 38.7063ZM26.965 38.5284C27.0431 38.6443 27.1684 38.7063 27.2958 38.7063C27.3747 38.7063 27.4548 38.6823 27.5246 38.6325C29.1714 37.4571 30.1548 35.5274 30.1548 33.4701C30.1548 31.9548 29.621 30.49 28.6518 29.3458C28.5059 29.1733 28.2518 29.1556 28.0846 29.3057C27.9933 29.3875 27.9466 29.5024 27.9466 29.6177C27.9466 29.7144 27.9792 29.8111 28.0456 29.8895C28.8872 30.8831 29.3506 32.1546 29.3506 33.4701C29.3506 35.256 28.4967 36.9317 27.0663 37.9524C26.9537 38.0329 26.8934 38.1619 26.8934 38.293C26.8934 38.3742 26.9166 38.4565 26.965 38.5284ZM30.1724 28.6169C30.0576 28.6169 29.9436 28.5664 29.864 28.4689C29.3885 27.8847 28.834 27.3759 28.2157 26.9565C28.0985 26.8769 28.035 26.7449 28.035 26.6105C28.035 26.5324 28.0566 26.4534 28.1014 26.3834C28.2236 26.1921 28.473 26.1401 28.6584 26.2658C29.3417 26.7293 29.9547 27.2918 30.4805 27.9374C30.5433 28.0146 30.5741 28.1088 30.5743 28.2024C30.5745 28.3206 30.5256 28.4382 30.4304 28.5203C30.3552 28.5851 30.2636 28.6169 30.1724 28.6169ZM17.6774 28.5197C17.7528 28.5849 17.8447 28.6169 17.936 28.6169C18.0505 28.6169 18.1644 28.5667 18.2438 28.4694C18.7232 27.8826 19.278 27.3738 19.8927 26.9565C20.0099 26.8769 20.0736 26.7449 20.0734 26.6103C20.0734 26.5322 20.052 26.4534 20.007 26.3834C19.8846 26.1921 19.6351 26.1401 19.45 26.2658C18.7706 26.7269 18.1578 27.2891 17.6285 27.9368C17.5651 28.0144 17.5343 28.109 17.5343 28.2027C17.5343 28.3207 17.5828 28.438 17.6774 28.5197ZM29.9 25.2133C29.8208 25.2133 29.7407 25.1893 29.6707 25.1392C29.1846 24.791 28.6613 24.4856 28.1154 24.2317C27.9669 24.1626 27.8789 24.0122 27.8788 23.8546C27.8788 23.7976 27.8902 23.7398 27.9146 23.6843C28.0062 23.4763 28.2444 23.384 28.4464 23.4776C29.0371 23.7524 29.6036 24.0831 30.1302 24.4602C30.2423 24.5405 30.3022 24.669 30.3024 24.7998C30.3026 24.8813 30.2792 24.9639 30.2304 25.0361C30.1521 25.1515 30.0271 25.2133 29.9 25.2133ZM17.8794 25.0362C17.9575 25.1516 18.0826 25.2134 18.2097 25.2134C18.2889 25.2134 18.3691 25.1894 18.4392 25.1393C18.9273 24.7895 19.4499 24.4841 19.9926 24.2318C20.1412 24.1627 20.2291 24.0123 20.2292 23.8547C20.2292 23.7977 20.2178 23.7398 20.1935 23.6844C20.102 23.4761 19.8642 23.384 19.6616 23.4777C19.0741 23.7509 18.5082 24.0814 17.9797 24.4603C17.8674 24.5406 17.8075 24.669 17.8073 24.7998C17.8071 24.8814 17.8306 24.964 17.8794 25.0362ZM18.3451 22.4021C18.1989 22.4021 18.0584 22.3201 17.9869 22.1772C17.957 22.1167 17.9426 22.0524 17.9425 21.9889C17.9425 21.8386 18.0222 21.6934 18.1611 21.6202C18.7326 21.3185 19.3298 21.0592 19.9358 20.8496C20.1462 20.7771 20.3741 20.8937 20.445 21.1102C20.4591 21.1538 20.4658 21.1982 20.466 21.2416C20.4661 21.4147 20.36 21.576 20.1918 21.6342C19.6238 21.8306 19.064 22.0734 18.5282 22.3564C18.4696 22.3874 18.4067 22.4021 18.3451 22.4021ZM29.5796 22.3545C29.6384 22.3858 29.7012 22.4007 29.7632 22.4007C29.9089 22.4007 30.0496 22.3188 30.1209 22.1761C30.1513 22.1154 30.1657 22.0505 30.1657 21.9867C30.1653 21.8368 30.0859 21.6922 29.9474 21.6189C29.3772 21.317 28.7799 21.0575 28.1722 20.8482C27.9609 20.7754 27.7337 20.8925 27.6633 21.1091C27.6492 21.1527 27.6424 21.1971 27.6424 21.2405C27.6424 21.4136 27.7487 21.5749 27.9168 21.6327C28.486 21.8289 29.0453 22.0718 29.5796 22.3545ZM29.5999 19.7443C29.5497 19.7443 29.4985 19.7345 29.449 19.7139C28.8755 19.4746 28.2816 19.2728 27.684 19.114C27.5027 19.0656 27.3822 18.8973 27.3824 18.7132C27.3826 18.679 27.3867 18.6443 27.3952 18.6099C27.4509 18.3885 27.6702 18.2559 27.885 18.3126C28.5171 18.4807 29.1449 18.6943 29.7512 18.9469C29.9074 19.0123 30.0023 19.1673 30.0023 19.3309C30.0023 19.3824 29.9928 19.435 29.9727 19.486C29.9093 19.6468 29.7589 19.7443 29.5999 19.7443ZM18.1365 19.4857C18.1997 19.6466 18.3502 19.7443 18.5093 19.7443C18.5594 19.7443 18.6105 19.7345 18.6599 19.7139C19.2374 19.4736 19.8315 19.2718 20.4252 19.114C20.6065 19.0656 20.727 18.8973 20.727 18.7132C20.7268 18.679 20.7227 18.6443 20.714 18.6099C20.6583 18.3885 20.4378 18.2559 20.2242 18.3126C19.5964 18.4797 18.9686 18.693 18.3583 18.9469C18.2021 19.012 18.107 19.1668 18.1069 19.3304C18.1069 19.3821 18.1164 19.4347 18.1365 19.4857ZM18.7081 17.1721C18.5391 17.1721 18.3819 17.0617 18.3261 16.8876C18.3125 16.8448 18.306 16.8013 18.3058 16.7586C18.3057 16.5846 18.4132 16.4226 18.5824 16.3653C19.11 16.1865 19.6412 16.0343 20.1613 15.9128C20.3791 15.8613 20.5934 16.0019 20.6423 16.2247C20.6493 16.2555 20.6525 16.2866 20.6525 16.3169C20.6523 16.5057 20.5257 16.6762 20.3394 16.7196C19.8439 16.8355 19.3373 16.9807 18.8336 17.1513C18.7921 17.1653 18.7497 17.1721 18.7081 17.1721ZM29.2763 17.1513C29.3179 17.1653 29.3601 17.1721 29.4017 17.1721C29.5707 17.1721 29.7281 17.0615 29.7835 16.8872C29.7973 16.8444 29.8038 16.801 29.8038 16.7582C29.8038 16.5843 29.6964 16.4223 29.5269 16.3653C28.9979 16.1865 28.4669 16.0343 27.9488 15.9128C27.7309 15.8613 27.5168 16.0017 27.4675 16.2244C27.4606 16.2554 27.4573 16.2862 27.4573 16.3165C27.4573 16.5054 27.5837 16.676 27.7701 16.7196C28.264 16.8353 28.7709 16.9807 29.2763 17.1513ZM29.1964 14.6581C29.1613 14.6581 29.1253 14.6533 29.0897 14.6433C28.8066 14.5631 28.5349 14.4932 28.2589 14.4294C28.0718 14.386 27.9449 14.2151 27.9449 14.0259C27.9451 13.9958 27.9483 13.9655 27.9548 13.9349C28.0035 13.7119 28.2183 13.5718 28.4353 13.622C28.7236 13.6888 29.0073 13.7617 29.3027 13.8452C29.4813 13.8959 29.5985 14.0624 29.5985 14.2442C29.5985 14.2803 29.5937 14.3172 29.584 14.3538C29.5349 14.5374 29.373 14.6581 29.1964 14.6581ZM18.5267 14.3543C18.5761 14.5377 18.7377 14.6581 18.9141 14.6581C18.9495 14.6581 18.9855 14.6533 19.0212 14.6431C19.2896 14.5668 19.5685 14.4949 19.8506 14.4294C20.037 14.3857 20.1637 14.2155 20.1641 14.0266C20.1641 13.9963 20.1607 13.9655 20.154 13.9344C20.105 13.7116 19.8891 13.5715 19.6731 13.6222C19.379 13.6907 19.0877 13.7658 18.8074 13.8454C18.6292 13.896 18.5124 14.0623 18.5122 14.2435C18.5122 14.2802 18.5168 14.3173 18.5267 14.3543ZM64.4498 26.2515C64.4498 25.728 64.3011 25.2688 64.0036 24.8738C63.7062 24.479 63.2942 24.1883 62.7683 24.0019C63.1736 23.8156 63.4927 23.5493 63.7254 23.2032C63.9583 22.8571 64.0748 22.4622 64.0748 22.0185C64.0748 21.4773 63.8978 21.0024 63.5443 20.5942C63.1908 20.186 62.7165 19.8754 62.1216 19.6624C61.5265 19.4494 60.8754 19.3429 60.1683 19.3429C59.056 19.3429 58.021 19.5957 57.0639 20.1017L57.6977 21.7788C58.0771 21.557 58.4781 21.3907 58.9006 21.2797C59.3231 21.1687 59.7328 21.1133 60.1295 21.1133C60.6641 21.1133 61.1016 21.2154 61.4425 21.4194C61.7829 21.6237 61.9535 21.9076 61.9535 22.2714C61.9535 22.582 61.8347 22.8261 61.5977 23.0035C61.3604 23.1811 61.0306 23.2696 60.6081 23.2696H58.5516V24.8937H60.7634C61.2463 24.8937 61.6277 24.9825 61.9081 25.1599C62.1882 25.3376 62.3286 25.5991 62.3286 25.9452C62.3286 26.3625 62.1234 26.6865 61.7141 26.9171C61.3043 27.1478 60.7892 27.2631 60.1683 27.2631C59.7112 27.2631 59.2436 27.1988 58.7649 27.0701C58.2863 26.9416 57.8484 26.753 57.452 26.5045L56.8053 28.0484C57.3569 28.377 57.9413 28.621 58.5578 28.7807C59.1744 28.9403 59.7932 29.0202 60.4142 29.0202C61.1469 29.0202 61.8218 28.909 62.4385 28.6874C63.0549 28.4657 63.5443 28.1462 63.9065 27.729C64.2687 27.3121 64.4498 26.8194 64.4498 26.2515ZM68.2335 27.1028C68.518 26.7479 68.7291 26.1954 68.8673 25.4454C69.0051 24.6957 69.0956 23.7662 69.1389 22.6567L69.1777 21.2991H72.2821V27.1028H68.2335ZM75.6195 30.7899V27.1028H74.3517V19.5419H67.3926L67.2892 22.4571C67.2376 23.9394 67.0994 25.0795 66.8754 25.8781C66.651 26.6767 66.2673 27.085 65.724 27.1028H65.3618L65.3489 30.7899H67.2892V28.8598H73.6792V30.7899H75.6195ZM82.5743 26.8048C83.0055 26.5519 83.344 26.1991 83.5897 25.7464C83.8356 25.2939 83.9584 24.7794 83.9584 24.2025C83.9584 23.6257 83.8356 23.111 83.5897 22.6583C83.344 22.2058 83.0055 21.8529 82.5743 21.6C82.1431 21.3472 81.6601 21.2206 81.1257 21.2206C80.5908 21.2206 80.1079 21.3472 79.6769 21.6C79.2455 21.8529 78.9073 22.2058 78.6615 22.6583C78.4157 23.111 78.2928 23.6257 78.2928 24.2025C78.2928 24.7794 78.4157 25.2939 78.6615 25.7464C78.9073 26.1991 79.2455 26.5519 79.6769 26.8048C80.1079 27.0577 80.5908 27.1842 81.1257 27.1842C81.6601 27.1842 82.1431 27.0577 82.5743 26.8048ZM78.5838 28.3956C77.8291 27.9785 77.2386 27.404 76.8118 26.6718C76.3849 25.9397 76.1714 25.1167 76.1714 24.2025C76.1714 23.2884 76.3849 22.4653 76.8118 21.7331C77.2386 21.0011 77.8291 20.4266 78.5838 20.0094C79.3384 19.5922 80.1856 19.3836 81.1257 19.3836C82.0654 19.3836 82.9107 19.5922 83.6609 20.0094C84.4112 20.4266 85.0017 21.0011 85.4331 21.7331C85.8641 22.4653 86.0798 23.2884 86.0798 24.2025C86.0798 25.1167 85.8641 25.9397 85.4331 26.6718C85.0017 27.404 84.4112 27.9785 83.6609 28.3956C82.9107 28.8128 82.0654 29.0211 81.1257 29.0211C80.1856 29.0211 79.3384 28.8128 78.5838 28.3956ZM93.314 22.9231C93.314 23.4378 93.1501 23.8349 92.8225 24.1144C92.4945 24.3938 92.016 24.5336 91.3866 24.5336H89.6792V21.2991H91.3866C92.016 21.2991 92.4945 21.4388 92.8225 21.7183C93.1501 21.9979 93.314 22.3994 93.314 22.9231ZM94.9568 21.126C94.6376 20.62 94.1827 20.2298 93.592 19.9545C93.0013 19.6796 92.3051 19.5419 91.5032 19.5419H87.5837V28.8598H89.6792V26.2908H91.5032C92.3051 26.2908 93.0013 26.1555 93.592 25.8848C94.1827 25.6141 94.6376 25.2238 94.9568 24.7134C95.2757 24.2031 95.4354 23.6065 95.4354 22.9231C95.4354 22.2307 95.2757 21.6318 94.9568 21.126ZM102.83 26.8033C103.261 26.5504 103.599 26.1976 103.845 25.7449C104.091 25.2924 104.214 24.7779 104.214 24.201C104.214 23.6242 104.091 23.1095 103.845 22.6568C103.599 22.2043 103.261 21.8513 102.83 21.5985C102.398 21.3457 101.916 21.2191 101.381 21.2191C100.846 21.2191 100.363 21.3457 99.9323 21.5985C99.5009 21.8513 99.1625 22.2043 98.9167 22.6568C98.6711 23.1095 98.5482 23.6242 98.5482 24.201C98.5482 24.7779 98.6711 25.2924 98.9167 25.7449C99.1625 26.1976 99.5009 26.5504 99.9323 26.8033C100.363 27.0561 100.846 27.1827 101.381 27.1827C101.916 27.1827 102.398 27.0561 102.83 26.8033ZM98.8392 28.3941C98.0845 27.977 97.494 27.4024 97.0671 26.6703C96.6403 25.9381 96.4268 25.1152 96.4268 24.201C96.4268 23.2869 96.6403 22.4638 97.0671 21.7316C97.494 20.9996 98.0845 20.4251 98.8392 20.0079C99.5937 19.5907 100.441 19.3821 101.381 19.3821C102.321 19.3821 103.166 19.5907 103.916 20.0079C104.666 20.4251 105.257 20.9996 105.688 21.7316C106.119 22.4638 106.335 23.2869 106.335 24.201C106.335 25.1152 106.119 25.9381 105.688 26.6703C105.257 27.4024 104.666 27.977 103.916 28.3941C103.166 28.8113 102.321 29.0196 101.381 29.0196C100.441 29.0196 99.5937 28.8113 98.8392 28.3941ZM112.224 24.9078C113.207 24.9078 113.699 25.2939 113.699 26.066C113.699 26.8646 113.207 27.264 112.224 27.264H109.922V24.9078H112.224ZM111.875 23.4037H109.922V21.1406H111.875C112.323 21.1406 112.666 21.2385 112.903 21.4336C113.14 21.6289 113.259 21.9084 113.259 22.2722C113.259 22.6449 113.142 22.9267 112.91 23.1174C112.677 23.3085 112.332 23.4037 111.875 23.4037ZM115.82 26.239C115.82 25.6799 115.673 25.2097 115.38 24.8281C115.087 24.4465 114.664 24.1713 114.113 24.0028C114.518 23.7987 114.832 23.5216 115.057 23.1707C115.281 22.8202 115.393 22.4144 115.393 21.9527C115.393 21.1806 115.1 20.5863 114.514 20.169C113.927 19.7521 113.108 19.5434 112.056 19.5434H107.839V28.8613H112.302C113.431 28.8613 114.3 28.6308 114.908 28.1691C115.516 27.7079 115.82 27.0643 115.82 26.239ZM122.621 26.8513C122.927 26.5764 123.08 26.177 123.08 25.6533C123.08 24.6862 122.503 24.2025 121.347 24.2025H119.459V27.264H121.347C121.89 27.264 122.315 27.1265 122.621 26.8513ZM124.303 23.3638C124.893 23.8695 125.189 24.6196 125.189 25.6135C125.189 26.6695 124.863 27.4749 124.212 28.0294C123.561 28.5842 122.645 28.8613 121.464 28.8613H117.376V19.5434H119.459V22.6049H121.761C122.865 22.6049 123.712 22.8579 124.303 23.3638ZM128.168 22.991C128.168 22.4319 128.325 22.0106 128.64 21.7264C128.954 21.4425 129.409 21.3006 130.004 21.3006H131.79V24.6815H129.953C129.366 24.6815 128.922 24.5351 128.62 24.2423C128.318 23.9495 128.168 23.5324 128.168 22.991ZM133.859 28.8613V19.5434H129.953C129.159 19.5434 128.469 19.6832 127.883 19.9626C127.297 20.2423 126.844 20.6415 126.525 21.1608C126.206 21.68 126.046 22.2988 126.046 23.0177C126.046 23.7454 126.21 24.3687 126.538 24.8878C126.866 25.4071 127.335 25.7955 127.948 26.0527L126.059 28.8613H128.271L129.875 26.3854H131.79V28.8613H133.859ZM123.26 36.8063C123.005 36.584 122.875 36.2698 122.869 35.8637H123.355C123.362 36.1191 123.451 36.3238 123.623 36.4773C123.794 36.6313 124.017 36.7083 124.29 36.7083C124.564 36.7083 124.788 36.6313 124.963 36.4773C125.138 36.3238 125.228 36.1191 125.235 35.8637H125.721C125.715 36.2698 125.583 36.584 125.326 36.8063C125.068 37.0291 124.723 37.1403 124.29 37.1403C123.858 37.1403 123.514 37.0291 123.26 36.8063ZM122.01 37.8864H122.688V41.9904L126.036 37.8864H126.637V43.0507H125.96V38.9465L122.621 43.0507H122.01V37.8864ZM64.6599 36.1773V43.0501H63.9827V37.5521L61.3589 42.1762H61.0249L58.4012 37.5815V43.0501H57.7239V36.1773H58.3059L61.2062 41.2729L64.0779 36.1773H64.6599ZM160 40.6037V40.3334C159.983 39.877 159.875 39.467 159.678 39.1031C159.462 38.7039 159.163 38.3946 158.781 38.1751C158.4 37.956 157.973 37.8464 157.503 37.8464C157.083 37.8464 156.706 37.9381 156.372 38.1213C156.038 38.3045 155.77 38.5665 155.566 38.9068V37.8857H154.917V44.9545H155.595V42.078C155.805 42.4116 156.073 42.6653 156.401 42.8389C156.728 43.0123 157.096 43.0989 157.503 43.0989C157.98 43.0989 158.408 42.9895 158.786 42.7702C159.164 42.551 159.462 42.2416 159.678 41.8422C159.875 41.4787 159.983 41.0656 160 40.6037ZM157.493 38.5245C158.537 38.5245 159.383 39.3953 159.383 40.4694C159.383 41.5436 158.537 42.4144 157.493 42.4144C156.449 42.4144 155.603 41.5436 155.603 40.4694C155.603 39.3953 156.449 38.5245 157.493 38.5245ZM66.8545 40.1635C66.8989 39.6529 67.085 39.239 67.4126 38.9215C67.7402 38.6039 68.1457 38.4453 68.629 38.4453C69.1188 38.4453 69.5274 38.6039 69.855 38.9215C70.1826 39.239 70.3685 39.6529 70.4131 40.1635H66.8545ZM66.8545 40.6838H71.0523L71.0619 40.4676C71.0619 39.9571 70.9569 39.504 70.747 39.1079C70.5372 38.712 70.2477 38.4029 69.8789 38.1802C69.5099 37.9577 69.0933 37.8464 68.629 37.8464C68.1646 37.8464 67.7465 37.9577 67.3744 38.1802C67.0024 38.4029 66.7097 38.7137 66.4967 39.1129C66.2836 39.5123 66.1771 39.9638 66.1771 40.4676C66.1771 40.9719 66.2884 41.4233 66.5111 41.8227C66.7337 42.222 67.0436 42.5345 67.4412 42.7602C67.8387 42.9862 68.2951 43.0989 68.8103 43.0989C69.211 43.0989 69.5783 43.027 69.9122 42.8829C70.2462 42.739 70.5244 42.5296 70.747 42.2547L70.3654 41.8031C70.1746 42.0258 69.9489 42.1942 69.6881 42.3085C69.4272 42.4231 69.141 42.4805 68.8294 42.4805C68.276 42.4805 67.8181 42.3152 67.4556 41.9845C67.093 41.6542 66.8927 41.2205 66.8545 40.6838ZM73.443 41.4643C73.3537 41.9389 73.1949 42.2643 72.9659 42.4411H76.0952V38.5042H73.6815L73.6242 39.6529C73.5922 40.3859 73.5319 40.9899 73.443 41.4643ZM77.5549 42.4411V44.2967H76.9157V43.0499H72.4221V44.2967H71.7829V42.4411H72.0691C72.4061 42.4216 72.6351 42.1663 72.756 41.6754C72.8768 41.1843 72.9595 40.497 73.0041 39.6136L73.0709 37.8856H76.7726V42.4411H77.5549ZM79.4942 37.8856H78.8168V43.0499H79.4276L82.7666 38.9457V43.0499H83.444V37.8856H82.8431L79.4942 41.9896V37.8856ZM90.4927 42.4411V44.3459H89.8535V43.0499H85.2644V37.8856H85.9418V42.4411H89.0043V37.8856H89.6817V42.4411H90.4927ZM92.4279 37.8856H91.7505V43.0499H92.3612L95.7002 38.9457V43.0499H96.3777V37.8856H95.7767L92.4279 41.9896V37.8856ZM98.1983 37.8856H98.8757V40.173H102.034V37.8856H102.711V43.0499H102.034V40.7719H98.8757V43.0499H98.1983V37.8856ZM104.487 41.8275C104.71 42.2302 105.017 42.5428 105.408 42.7653C105.799 42.9878 106.243 43.0989 106.739 43.0989C107.165 43.0989 107.55 43.0123 107.893 42.8389C108.236 42.6653 108.507 42.4116 108.704 42.078L108.198 41.7243C108.033 41.9798 107.823 42.1697 107.569 42.2938C107.314 42.4183 107.038 42.4805 106.739 42.4805C106.376 42.4805 106.05 42.3969 105.761 42.2302C105.471 42.0633 105.245 41.8275 105.083 41.5233C104.921 41.2189 104.84 40.867 104.84 40.4676C104.84 40.0751 104.921 39.725 105.083 39.4171C105.245 39.1095 105.471 38.8724 105.761 38.7055C106.05 38.5384 106.376 38.4551 106.739 38.4551C107.038 38.4551 107.314 38.5189 107.569 38.6464C107.823 38.7741 108.033 38.9657 108.198 39.2209L108.704 38.8675C108.507 38.5337 108.238 38.2799 107.898 38.1066C107.558 37.9332 107.171 37.8464 106.739 37.8464C106.243 37.8464 105.799 37.9577 105.408 38.1802C105.017 38.4029 104.71 38.7137 104.487 39.1129C104.264 39.5123 104.153 39.9638 104.153 40.4676C104.153 40.9719 104.264 41.4251 104.487 41.8275ZM111.807 40.7524H110.662V43.0499H109.985V37.8856H110.662V40.1536H111.817L113.582 37.8856H114.317L112.342 40.3892L114.46 43.0499H113.658L111.807 40.7524ZM116.24 37.8856H115.562V43.0499H116.173L119.512 38.9457V43.0499H120.19V37.8856H119.589L116.24 41.9896V37.8856ZM136.74 44.3459V42.4411H135.929V37.8856H135.252V42.4411H132.19V37.8856H131.512V43.0499H136.101V44.3459H136.74ZM138.721 38.9215C138.394 39.239 138.208 39.6529 138.163 40.1635H141.722C141.677 39.6529 141.491 39.239 141.164 38.9215C140.836 38.6039 140.427 38.4453 139.938 38.4453C139.454 38.4453 139.049 38.6039 138.721 38.9215ZM142.361 40.6838H138.163C138.201 41.2205 138.402 41.6542 138.764 41.9845C139.127 42.3152 139.585 42.4805 140.138 42.4805C140.45 42.4805 140.736 42.4231 140.997 42.3085C141.257 42.1942 141.483 42.0258 141.674 41.8031L142.056 42.2547C141.833 42.5296 141.555 42.739 141.221 42.8829C140.887 43.027 140.52 43.0989 140.119 43.0989C139.604 43.0989 139.147 42.9862 138.75 42.7602C138.352 42.5345 138.042 42.222 137.82 41.8227C137.597 41.4233 137.486 40.9719 137.486 40.4676C137.486 39.9638 137.592 39.5123 137.805 39.1129C138.018 38.7137 138.311 38.4029 138.683 38.1802C139.055 37.9577 139.473 37.8464 139.938 37.8464C140.402 37.8464 140.819 37.9577 141.187 38.1802C141.556 38.4029 141.846 38.712 142.056 39.1079C142.266 39.504 142.37 39.9571 142.37 40.4676L142.361 40.6838ZM144.486 37.8856H143.808V43.0499H144.486V40.7719H147.644V43.0499H148.321V37.8856H147.644V40.173H144.486V37.8856ZM153.853 38.5042H151.955V43.0499H151.277V38.5042H149.379V37.8856H153.853V38.5042Z" fill="#B1B1B1"/>
<path id="Union_2" fill-rule="evenodd" clip-rule="evenodd" d="M34.0415 2.20662C34.0017 2.20662 33.9613 2.20081 33.9214 2.18847C31.3785 1.40784 28.7318 0.935826 26.0547 0.78624C25.841 0.774236 25.6761 0.600688 25.6761 0.393773C25.6761 0.386116 25.6763 0.378601 25.6767 0.370945C25.6894 0.15401 25.8757 -0.0112195 26.1004 0.000596153C28.8434 0.15401 31.5554 0.637505 34.1614 1.43752C34.3329 1.49021 34.4429 1.64524 34.443 1.8125C34.443 1.85168 34.4371 1.89133 34.4245 1.9307C34.3707 2.09891 34.2123 2.20662 34.0415 2.20662ZM13.9116 1.93072C13.9654 2.09893 14.1238 2.20664 14.2945 2.20664C14.3344 2.20664 14.3749 2.20082 14.4148 2.18849C16.956 1.40785 19.6022 0.935844 22.2799 0.786258C22.4935 0.774254 22.6585 0.600706 22.6585 0.393791C22.6585 0.386134 22.6584 0.378619 22.6579 0.370963C22.6451 0.154028 22.4575 -0.0113905 22.2341 0.000614152C19.4906 0.154028 16.7789 0.637523 14.1746 1.43754C14.0032 1.49023 13.8932 1.64544 13.893 1.81252C13.893 1.8517 13.899 1.89135 13.9116 1.93072ZM42.9575 9.35543C43.0311 9.41262 43.1187 9.44031 43.206 9.44031C43.3246 9.44031 43.442 9.38913 43.5213 9.29078C43.5795 9.21856 43.6077 9.13254 43.6077 9.047C43.6077 8.93078 43.5555 8.81588 43.4551 8.73818C38.5464 4.93573 32.6571 2.69402 26.4239 2.25552C26.2049 2.23685 26.0106 2.40288 25.9948 2.61968C25.994 2.62932 25.9936 2.63901 25.9936 2.64851C25.9938 2.85292 26.1551 3.02547 26.3664 3.04017C32.4381 3.46766 38.1753 5.65133 42.9575 9.35543ZM46.459 15.9957C46.5381 16.0971 46.6574 16.1503 46.7781 16.1503C46.8632 16.1503 46.9489 16.1238 47.0218 16.0692C47.1249 15.9919 47.1791 15.8752 47.1793 15.757C47.1795 15.6733 47.1526 15.5892 47.0966 15.5179C41.9036 8.8651 34.0445 4.82652 25.5338 4.43703C25.3152 4.42555 25.1246 4.59479 25.1143 4.81168C25.1139 4.81801 25.1137 4.82439 25.1137 4.83054C25.1139 5.0393 25.2815 5.21317 25.4966 5.22301C33.7697 5.60148 41.4103 9.52819 46.459 15.9957ZM0.401355 22.3119C0.34488 22.3119 0.287681 22.3001 0.232894 22.2754C0.0864249 22.2089 0.000144685 22.0667 0 21.9181C0 21.863 0.0121053 21.8066 0.0373769 21.7531C3.46742 14.4926 10.25 9.08965 18.181 7.29992C18.3973 7.25157 18.6123 7.38348 18.6623 7.59521C18.6691 7.62489 18.6726 7.65458 18.6726 7.68393C18.6726 7.863 18.5466 8.02488 18.361 8.06689C10.6702 9.80223 4.09274 15.0423 0.76596 22.0837C0.698055 22.2273 0.553033 22.3119 0.401355 22.3119ZM47.5703 22.0837C47.6383 22.2273 47.7833 22.3119 47.9351 22.3119C47.9914 22.3119 48.0487 22.3001 48.1035 22.2754C48.2498 22.2089 48.3361 22.0667 48.3363 21.9181C48.3363 21.863 48.3242 21.8066 48.299 21.7531C44.8692 14.4927 38.0859 9.0898 30.1537 7.29992C29.9373 7.25157 29.7223 7.38348 29.6724 7.59521C29.6654 7.62489 29.6621 7.65458 29.6621 7.68393C29.6622 7.863 29.7879 8.02488 29.9736 8.06689C37.6655 9.80242 44.2438 15.0425 47.5703 22.0837ZM0.832307 27.9985C0.803563 27.9985 0.774626 27.9955 0.745303 27.9891C0.558033 27.9486 0.430325 27.7859 0.430325 27.6052C0.430325 27.5771 0.433459 27.5486 0.439922 27.52C2.35887 19.0128 8.86004 12.2237 17.4064 9.80206C17.6195 9.74137 17.8419 9.86194 17.9035 10.0706C17.9144 10.1074 17.9195 10.1442 17.9195 10.1807C17.9192 10.3513 17.805 10.5082 17.6294 10.5579C9.36566 12.8995 3.07936 19.4642 1.22406 27.6899C1.18268 27.8734 1.01659 27.9985 0.832307 27.9985ZM47.5022 28C47.3179 28 47.1519 27.8749 47.1106 27.6914C45.2569 19.4652 38.9706 12.8999 30.7051 10.5579C30.5295 10.5082 30.4153 10.3513 30.415 10.1807C30.415 10.1442 30.4203 10.1074 30.431 10.0706C30.4926 9.86194 30.7155 9.74137 30.9282 9.80206C39.4764 12.2242 45.9776 19.014 47.8947 27.5216C47.901 27.5502 47.9042 27.5788 47.9042 27.607C47.9041 27.7876 47.7764 27.9501 47.5891 27.9906C47.5598 27.997 47.5308 28 47.5022 28ZM1.55594 16.1503C1.47091 16.1503 1.38511 16.1238 1.31243 16.0692C1.20922 15.9919 1.15492 15.8752 1.15477 15.757C1.15463 15.6733 1.18154 15.5892 1.23744 15.5179C6.43041 8.86511 14.2899 4.82653 22.8005 4.43704C23.0225 4.42542 23.2098 4.59481 23.22 4.81169C23.2203 4.81803 23.2205 4.82441 23.2205 4.83055C23.2203 5.03931 23.0527 5.21319 22.8377 5.22302C14.5644 5.6015 6.92378 9.5282 1.87506 15.9957C1.79606 16.0971 1.6767 16.1503 1.55594 16.1503ZM5.12826 9.44031C5.00967 9.44031 4.89223 9.38913 4.81304 9.29078C4.75468 9.21856 4.72642 9.13254 4.72642 9.047C4.72642 8.93078 4.77865 8.81588 4.87901 8.73818C9.78768 4.93587 15.677 2.69421 21.9103 2.25552C22.1277 2.23685 22.3237 2.40288 22.3394 2.61968C22.34 2.62932 22.3404 2.63901 22.3404 2.64851C22.3402 2.85292 22.179 3.02547 21.9676 3.04017C15.8957 3.46766 10.1588 5.65152 5.37678 9.35543C5.30323 9.41262 5.21545 9.44031 5.12826 9.44031ZM78.7721 14.2978C78.0271 13.9053 77.4416 13.3611 77.0152 12.6648C76.589 11.9685 76.3759 11.1817 76.3759 10.3039C76.3759 9.4262 76.589 8.63924 77.0152 7.94297C77.4416 7.24669 78.0271 6.70247 78.7721 6.31C79.517 5.91753 80.3544 5.72125 81.2845 5.72125C82.0682 5.72125 82.7767 5.85647 83.4096 6.12643C84.0425 6.39668 84.5742 6.7847 85.0048 7.29103L83.6614 8.50633C83.0499 7.81441 82.2923 7.46826 81.388 7.46826C80.8281 7.46826 80.3287 7.5885 79.8896 7.82911C79.4503 8.06953 79.1079 8.405 78.8625 8.83547C78.6171 9.26598 78.4942 9.75553 78.4942 10.3039C78.4942 10.8526 78.6171 11.3419 78.8625 11.7723C79.1079 12.2028 79.4503 12.5382 79.8896 12.7787C80.3287 13.0193 80.8281 13.1395 81.388 13.1395C82.2923 13.1395 83.0499 12.7894 83.6614 12.0889L85.0048 13.304C84.5742 13.8189 84.0403 14.2114 83.4031 14.4813C82.7656 14.7515 82.0553 14.8865 81.2718 14.8865C80.3501 14.8865 79.517 14.6903 78.7721 14.2978ZM61.7183 7.88606L63.1522 11.2787H60.2845L61.7183 7.88606ZM59.6128 12.8358H63.811L64.612 14.7347H66.808L62.7646 5.87324H60.6978L56.6676 14.7347H58.8118L59.6128 12.8358ZM70.0387 11.1648H71.4854L73.8363 14.7347H76.2134L73.1647 10.1521L76.1229 5.87324H73.914L71.5371 9.45583H70.0387V5.87324H67.9589V14.7347H70.0387V11.1648ZM88.3156 5.87324H86.2358V14.7347H88.2124L92.5267 8.9748V14.7347H94.5936V5.87324H92.6302L88.3156 11.6458V5.87324ZM102.49 12.7787C102.921 12.5382 103.259 12.2028 103.504 11.7723C103.75 11.3419 103.872 10.8526 103.872 10.3039C103.872 9.75553 103.75 9.26598 103.504 8.83547C103.259 8.405 102.921 8.06953 102.49 7.82911C102.059 7.5885 101.577 7.46826 101.043 7.46826C100.509 7.46826 100.027 7.5885 99.5965 7.82911C99.1657 8.06953 98.8279 8.405 98.5825 8.83547C98.3369 9.26598 98.2143 9.75553 98.2143 10.3039C98.2143 10.8526 98.3369 11.3419 98.5825 11.7723C98.8279 12.2028 99.1657 12.5382 99.5965 12.7787C100.027 13.0193 100.509 13.1395 101.043 13.1395C101.577 13.1395 102.059 13.0193 102.49 12.7787ZM98.5049 14.2915C97.7512 13.895 97.1615 13.3484 96.7353 12.6522C96.3089 11.9559 96.0957 11.1732 96.0957 10.3039C96.0957 9.43471 96.3089 8.6519 96.7353 7.95563C97.1615 7.25936 97.7512 6.71301 98.5049 6.31633C99.2584 5.91966 100.105 5.72125 101.043 5.72125C101.982 5.72125 102.826 5.91966 103.575 6.31633C104.324 6.71301 104.914 7.25936 105.345 7.95563C105.775 8.6519 105.991 9.43471 105.991 10.3039C105.991 11.1732 105.775 11.9559 105.345 12.6522C104.914 13.3484 104.324 13.895 103.575 14.2915C102.826 14.6883 101.982 14.8865 101.043 14.8865C100.105 14.8865 99.2584 14.6883 98.5049 14.2915ZM115.709 9.43046L115.722 14.7347H117.685L117.672 5.87324H115.942L112.609 11.3801L109.224 5.87324H107.493V14.7347H109.457V9.53183L112.118 13.7978H113.048L115.709 9.43046ZM125.344 11.2787L123.91 7.88606L122.476 11.2787H125.344ZM126.003 12.8358H121.805L121.004 14.7347H118.859L122.89 5.87324H124.957L129 14.7347H126.804L126.003 12.8358Z" fill="#B1B1B1"/>
</g>
<defs>
<clipPath id="clip0_187_811">
<rect width="160" height="47" fill="white"/>
</clipPath>
</defs>
</svg>
