<svg width="213" height="62" viewBox="0 0 213 62" fill="none" xmlns="http://www.w3.org/2000/svg">
<g clip-path="url(#clip0_64_98)">
<path fill-rule="evenodd" clip-rule="evenodd" d="M2.85545 44.605C2.85545 44.9009 3.09491 45.1407 3.39018 45.1407C3.68552 45.1407 3.92485 44.9009 3.92485 44.605L3.92285 44.4762C3.92285 32.4143 11.558 21.6565 22.9219 17.7067C23.2012 17.6095 23.3489 17.3043 23.2521 17.0247C23.1554 16.7449 22.8513 16.5968 22.5716 16.6938C10.7776 20.7933 2.85339 31.9581 2.85339 44.4762C2.85339 44.4818 2.85339 44.4875 2.85359 44.493L2.85545 44.605ZM60.9855 45.1407C60.6902 45.1407 60.4507 44.9009 60.4507 44.605V44.4762C60.4507 32.4137 52.8153 21.6556 41.4514 17.7067C41.1724 17.6097 41.0247 17.3043 41.1212 17.0247C41.218 16.7449 41.5226 16.5968 41.8019 16.6938C53.596 20.7926 61.5203 31.9574 61.5203 44.4762V44.605C61.5203 44.9009 61.2808 45.1407 60.9855 45.1407ZM6.70892 51.0371C6.77097 51.2792 6.98826 51.44 7.22656 51.44C7.27063 51.44 7.31533 51.4346 7.35972 51.4232C7.60123 51.3609 7.76168 51.1434 7.76187 50.9047C7.76187 50.8607 7.75648 50.8157 7.74498 50.7708C7.21943 48.7181 6.95313 46.5998 6.95313 44.4751C6.95313 34.1912 13.0821 25.0123 22.5673 21.0901C22.7738 21.0048 22.8984 20.8049 22.8984 20.5942C22.8984 20.5262 22.8853 20.4572 22.8576 20.3904C22.7452 20.117 22.4326 19.9862 22.1596 20.0993C12.2723 24.1877 5.88367 33.7556 5.88367 44.4751C5.88367 46.6896 6.16128 48.8972 6.70892 51.0371ZM57.1488 51.4418C57.1046 51.4418 57.06 51.4364 57.0155 51.425C56.774 51.3628 56.6136 51.1452 56.6134 50.9065C56.6134 50.8625 56.6188 50.8175 56.6303 50.7727C57.1545 48.7251 57.42 46.6072 57.42 44.4769C57.42 34.1921 51.2909 25.0132 41.8055 21.0919C41.5991 21.0066 41.4745 20.8067 41.4745 20.596C41.4745 20.5281 41.4876 20.459 41.515 20.3922C41.6277 20.1186 41.9404 19.9887 42.2134 20.1009C52.1007 24.1883 58.4896 33.7566 58.4896 44.4769C58.4896 46.6969 58.2124 48.9046 57.6663 51.0389C57.6043 51.2811 57.3869 51.4418 57.1488 51.4418ZM12.4354 56.8092C12.5367 56.972 12.7111 57.0612 12.8893 57.0612C12.9862 57.0612 13.0839 57.0349 13.1721 56.9798C13.3346 56.8782 13.4238 56.7033 13.4236 56.5245C13.4236 56.4276 13.3974 56.3297 13.3423 56.2414C11.1469 52.7179 9.98639 48.6492 9.98639 44.4757C9.98639 36.0125 14.677 28.3908 22.2278 24.5852C22.4143 24.4912 22.5221 24.3027 22.5225 24.1067C22.5225 24.0257 22.5042 23.9432 22.4653 23.8657C22.3324 23.6012 22.0107 23.4944 21.7473 23.6277C13.8332 27.6164 8.91699 35.6049 8.91699 44.4757C8.91699 48.8502 10.1337 53.1153 12.4354 56.8092ZM51.4836 57.0612C51.3866 57.0612 51.2887 57.0349 51.2006 56.9798C51.0383 56.878 50.9491 56.7031 50.9493 56.5244C50.9493 56.4274 50.9756 56.3293 51.0304 56.2411C53.2275 52.7189 54.3886 48.6506 54.3886 44.4757C54.3886 36.0125 49.6978 28.3908 42.1472 24.5852C41.9607 24.4912 41.8529 24.3027 41.8524 24.1067C41.8524 24.0257 41.8707 23.9432 41.9097 23.8657C42.0423 23.6012 42.3638 23.4944 42.6276 23.6277C50.5416 27.6164 55.4581 35.6049 55.4581 44.4757C55.4581 48.8518 54.2406 53.1166 51.9375 56.8094C51.836 56.972 51.6617 57.0612 51.4836 57.0612ZM21.8689 61.9265C21.9545 61.9776 22.0485 62.0017 22.1415 62.0017C22.3239 62.0017 22.5018 61.9081 22.6016 61.7394C22.6526 61.6533 22.6767 61.5591 22.6765 61.4657C22.6765 61.2831 22.5831 61.1051 22.4149 61.0052C16.6184 57.5554 13.0175 51.2226 13.0175 44.4772C13.0175 37.7878 16.4069 31.6832 22.0841 28.1474C22.2471 28.0459 22.3368 27.8705 22.3365 27.6911C22.3365 27.5948 22.3104 27.4974 22.256 27.4095C22.0996 27.1579 21.7695 27.0809 21.5196 27.2371C15.5263 30.9699 11.9481 37.4147 11.9481 44.4772C11.9481 51.5986 15.7496 58.2849 21.8689 61.9265ZM41.7721 61.7393C41.8718 61.9081 42.0499 62.0017 42.2321 62.0017C42.3253 62.0017 42.419 61.9776 42.5047 61.9265C48.6242 58.2861 52.4255 51.5999 52.4255 44.4772C52.4255 37.414 48.8483 30.9691 42.8564 27.237C42.6062 27.0808 42.2763 27.158 42.1199 27.4094C42.0656 27.4973 42.0395 27.5948 42.0395 27.691C42.0392 27.8704 42.1288 28.0458 42.2919 28.1473C47.9677 31.6824 51.3562 37.7868 51.3562 44.4772C51.3562 51.2236 47.7554 57.5567 41.9588 61.0051C41.7907 61.1048 41.6973 61.2829 41.6971 61.4655C41.6969 61.559 41.7211 61.6533 41.7721 61.7393ZM36.2639 61.2175C36.0246 61.2175 35.8066 61.0554 35.7457 60.8121C35.7348 60.7683 35.7296 60.7245 35.7294 60.6815C35.7294 60.4415 35.8912 60.223 36.1341 60.1616C43.3119 58.3525 48.3254 51.9027 48.3254 44.4775C48.3254 39.4852 46.0744 34.8493 42.1493 31.7581C42.0154 31.6525 41.9451 31.4951 41.9451 31.3364C41.9451 31.2206 41.9825 31.1039 42.0593 31.0055C42.2417 30.7732 42.5775 30.7323 42.8103 30.9154C46.9948 34.2111 49.3947 39.1543 49.3947 44.4775C49.3947 52.395 44.0491 59.2719 36.3947 61.2011C36.3511 61.212 36.3072 61.2175 36.2639 61.2175ZM27.9784 61.1993C28.0223 61.2102 28.0661 61.2158 28.1094 61.2158C28.3485 61.2158 28.5666 61.0536 28.6276 60.8103C28.6385 60.7668 28.6437 60.7227 28.6439 60.6797C28.6441 60.4397 28.4821 60.2212 28.2392 60.1598C21.0612 58.3503 16.0478 51.9008 16.0478 44.4757C16.0478 39.4853 18.2988 34.8491 22.2238 31.7562C22.3581 31.6505 22.4281 31.4932 22.4281 31.3346C22.4281 31.2186 22.3906 31.1021 22.3136 31.0037C22.1312 30.7709 21.7952 30.7303 21.5629 30.9138C17.3784 34.2114 14.9784 39.1544 14.9784 44.4757C14.9784 52.3927 20.3242 59.2696 27.9784 61.1993ZM36.6537 57.9299C36.4321 57.9299 36.2253 57.7908 36.1487 57.5693C36.1285 57.5113 36.1192 57.4523 36.119 57.3944C36.1188 57.172 36.2574 56.9642 36.4788 56.8875C41.752 55.0559 45.295 50.068 45.295 44.4759C45.295 41.2587 44.1192 38.1601 41.984 35.7514C41.8936 35.6494 41.8491 35.5222 41.8491 35.3957C41.8491 35.2481 41.9097 35.1007 42.0289 34.9946C42.2496 34.7982 42.5874 34.818 42.7837 35.0394C45.0927 37.6447 46.3643 40.9959 46.3643 44.4759C46.3643 50.5245 42.5323 55.9191 36.8289 57.9002C36.7712 57.9204 36.712 57.9299 36.6537 57.9299ZM27.5447 57.9001C27.6027 57.9204 27.6619 57.9299 27.7199 57.9299C27.9413 57.9299 28.1484 57.7908 28.2252 57.5692C28.2451 57.5113 28.2547 57.4523 28.2548 57.3944C28.2548 57.172 28.1162 56.9642 27.8948 56.8875C22.6231 55.0562 19.0811 50.0683 19.0811 44.4759C19.0811 41.2565 20.2568 38.158 22.3914 35.7514C22.4819 35.6496 22.5265 35.5226 22.5266 35.3959C22.5269 35.2481 22.4663 35.1009 22.3472 34.9949C22.1265 34.7979 21.7887 34.8182 21.5924 35.0394C19.2833 37.6422 18.0116 40.9937 18.0116 44.4759C18.0116 50.5249 21.8428 55.9195 27.5447 57.9001ZM36.6516 54.6584C36.4499 54.6584 36.2568 54.5434 36.1662 54.3481C36.1324 54.2753 36.1163 54.1987 36.1161 54.1233C36.1161 53.921 36.2307 53.727 36.4259 53.6362C39.9707 51.9856 42.2614 48.3897 42.2614 44.4758C42.2614 42.9306 41.9226 41.4489 41.2544 40.0711C41.2179 39.996 41.2007 39.916 41.2005 39.8376C41.2005 39.6387 41.311 39.4477 41.5016 39.355C41.7672 39.2252 42.0872 39.3367 42.2161 39.6028C42.9557 41.1274 43.3309 42.7668 43.3309 44.4758C43.3309 48.8051 40.7976 52.7825 36.8766 54.6084C36.8036 54.6423 36.727 54.6584 36.6516 54.6584ZM27.4959 54.6083C27.5689 54.6423 27.6454 54.6583 27.7209 54.6583C27.9228 54.6583 28.1156 54.5434 28.2062 54.348C28.24 54.2752 28.2561 54.1986 28.2563 54.1232C28.2565 53.9209 28.1419 53.7269 27.9468 53.6361C24.4017 51.9855 22.1113 48.3897 22.1113 44.4758C22.1113 42.9301 22.45 41.4484 23.1183 40.0712C23.1548 39.996 23.1722 39.9162 23.1724 39.8375C23.1724 39.6388 23.0616 39.4476 22.8713 39.3549C22.6057 39.2253 22.2858 39.3366 22.1566 39.6025C21.417 41.1268 21.0419 42.7663 21.0419 44.4758C21.0419 48.805 23.5753 52.7824 27.4959 54.6083ZM27.8779 51.2583C27.7727 51.2583 27.6667 51.2272 27.5738 51.1627C25.3817 49.6413 24.0731 47.1412 24.0731 44.4755C24.0731 42.5113 24.784 40.6138 26.0746 39.1327C26.2688 38.9096 26.6069 38.8869 26.829 39.0815C26.9502 39.1876 27.0123 39.3363 27.0121 39.486C27.0119 39.6106 26.9683 39.7362 26.88 39.8378C25.7597 41.1235 25.1426 42.7706 25.1426 44.4755C25.1426 46.7895 26.279 48.9601 28.1829 50.2817C28.3325 50.3858 28.4129 50.5527 28.4129 50.7226C28.4129 50.8277 28.3823 50.9345 28.3177 51.0275C28.214 51.1777 28.0471 51.2583 27.8779 51.2583ZM36.0579 51.0279C36.1619 51.178 36.3284 51.2584 36.498 51.2584C36.6029 51.2584 36.7094 51.2273 36.8023 51.1628C38.9925 49.6403 40.3005 47.1405 40.3005 44.4756C40.3005 42.5127 39.5905 40.6153 38.3015 39.1332C38.1075 38.9097 37.7694 38.8868 37.5471 39.0812C37.4257 39.1872 37.3635 39.336 37.3635 39.4854C37.3635 39.6106 37.4068 39.7359 37.4952 39.8374C38.6146 41.1245 39.231 42.7716 39.231 44.4756C39.231 46.7889 38.0952 48.9597 36.1927 50.2818C36.0429 50.3861 35.9628 50.5532 35.9628 50.7231C35.9628 50.8282 35.9935 50.9348 36.0579 51.0279ZM40.324 38.1889C40.1712 38.1889 40.0196 38.1235 39.9138 37.9972C39.2814 37.2405 38.5438 36.5814 37.7215 36.0382C37.5656 35.9351 37.4811 35.764 37.4811 35.5899C37.4811 35.4888 37.5099 35.3864 37.5695 35.2958C37.7319 35.048 38.0637 34.9806 38.3102 35.1434C39.2191 35.7438 40.0344 36.4724 40.7337 37.3088C40.8173 37.4088 40.8583 37.5307 40.8585 37.652C40.8587 37.8051 40.7937 37.9575 40.667 38.0638C40.5671 38.1478 40.4452 38.1889 40.324 38.1889ZM23.705 38.0631C23.8054 38.1475 23.9275 38.1889 24.049 38.1889C24.2012 38.1889 24.3528 38.124 24.4584 37.9979C25.096 37.2377 25.8339 36.5787 26.6514 36.0382C26.8073 35.9351 26.8921 35.764 26.8918 35.5896C26.8918 35.4886 26.8633 35.3864 26.8035 35.2958C26.6408 35.048 26.3088 34.9806 26.0627 35.1434C25.159 35.7407 24.344 36.469 23.64 37.3079C23.5557 37.4085 23.5146 37.531 23.5146 37.6525C23.5146 37.8053 23.5793 37.9572 23.705 38.0631ZM39.9616 33.7801C39.8563 33.7801 39.7498 33.749 39.6566 33.6841C39.0101 33.233 38.3141 32.8374 37.5881 32.5085C37.3905 32.4191 37.2735 32.2242 37.2733 32.0201C37.2733 31.9462 37.2885 31.8713 37.3209 31.7995C37.4428 31.53 37.7596 31.4105 38.0283 31.5318C38.8139 31.8876 39.5674 32.316 40.2677 32.8045C40.4169 32.9085 40.4966 33.0749 40.4969 33.2444C40.497 33.35 40.466 33.4569 40.401 33.5506C40.297 33.7 40.1307 33.7801 39.9616 33.7801ZM23.9736 33.5507C24.0776 33.7001 24.244 33.7802 24.413 33.7802C24.5184 33.7802 24.6251 33.7491 24.7182 33.6842C25.3674 33.2311 26.0626 32.8355 26.7843 32.5087C26.9819 32.4192 27.0988 32.2243 27.0991 32.0202C27.0991 31.9463 27.0839 31.8714 27.0515 31.7996C26.9298 31.5298 26.6135 31.4104 26.3441 31.5319C25.5627 31.8857 24.81 32.3138 24.1071 32.8046C23.9578 32.9086 23.878 33.0751 23.8778 33.2445C23.8776 33.3501 23.9088 33.4571 23.9736 33.5507ZM24.5931 30.1386C24.3986 30.1386 24.2117 30.0323 24.1167 29.8472C24.0769 29.7689 24.0578 29.6855 24.0576 29.6033C24.0576 29.4086 24.1637 29.2206 24.3483 29.1257C25.1085 28.7349 25.9027 28.3989 26.7088 28.1275C26.9886 28.0335 27.2918 28.1846 27.386 28.4651C27.4049 28.5216 27.4137 28.579 27.4139 28.6353C27.4142 28.8595 27.273 29.0685 27.0493 29.1438C26.2938 29.3982 25.5493 29.7127 24.8366 30.0793C24.7587 30.1195 24.6751 30.1386 24.5931 30.1386ZM39.5355 30.0769C39.6136 30.1174 39.6973 30.1367 39.7797 30.1367C39.9735 30.1367 40.1606 30.0306 40.2554 29.8458C40.2959 29.7672 40.315 29.6832 40.315 29.6005C40.3145 29.4063 40.2089 29.2189 40.0247 29.124C39.2663 28.733 38.4718 28.3968 37.6636 28.1256C37.3826 28.0314 37.0803 28.1831 36.9867 28.4636C36.9679 28.5201 36.9589 28.5776 36.9589 28.6339C36.9589 28.858 37.1002 29.067 37.3239 29.1419C38.0809 29.3961 38.8249 29.7106 39.5355 30.0769ZM39.5625 26.6957C39.4957 26.6957 39.4277 26.683 39.3618 26.6564C38.599 26.3464 37.8091 26.085 37.0142 25.8792C36.7731 25.8166 36.6129 25.5986 36.6132 25.3601C36.6134 25.3158 36.6188 25.2708 36.6301 25.2263C36.7042 24.9395 36.9959 24.7678 37.2816 24.8412C38.1223 25.059 38.9573 25.3356 39.7637 25.6628C39.9715 25.7475 40.0977 25.9483 40.0977 26.1602C40.0977 26.2269 40.085 26.2951 40.0583 26.3612C39.974 26.5694 39.7739 26.6957 39.5625 26.6957ZM24.3157 26.3607C24.3998 26.5692 24.5998 26.6957 24.8115 26.6957C24.8781 26.6957 24.9461 26.683 25.0118 26.6564C25.7799 26.3451 26.5701 26.0836 27.3598 25.8792C27.6008 25.8166 27.7611 25.5986 27.7611 25.3601C27.7608 25.3158 27.7554 25.2708 27.7438 25.2263C27.6697 24.9395 27.3765 24.7678 27.0924 24.8412C26.2573 25.0576 25.4223 25.334 24.6107 25.6628C24.4029 25.7471 24.2764 25.9476 24.2762 26.1595C24.2762 26.2265 24.2889 26.2947 24.3157 26.3607ZM25.0759 23.3639C24.8511 23.3639 24.642 23.2207 24.5679 22.9952C24.5498 22.9398 24.5412 22.8835 24.5409 22.8281C24.5407 22.6028 24.6837 22.3929 24.9087 22.3187C25.6105 22.0871 26.317 21.8899 27.0087 21.7325C27.2984 21.6658 27.5834 21.8479 27.6484 22.1366C27.6577 22.1765 27.6621 22.2167 27.6621 22.256C27.6618 22.5006 27.4934 22.7214 27.2456 22.7777C26.5866 22.9278 25.9128 23.1158 25.2429 23.3368C25.1876 23.355 25.1312 23.3639 25.0759 23.3639ZM39.1321 23.3368C39.1874 23.355 39.2436 23.3639 39.2989 23.3639C39.5237 23.3639 39.733 23.2206 39.8067 22.9948C39.8251 22.9394 39.8337 22.883 39.8337 22.8277C39.8337 22.6024 39.6909 22.3925 39.4654 22.3187C38.7618 22.0871 38.0555 21.8899 37.3665 21.7326C37.0766 21.6658 36.7918 21.8477 36.7263 22.1361C36.7171 22.1763 36.7128 22.2163 36.7128 22.2556C36.7128 22.5002 36.8809 22.7211 37.1288 22.7777C37.7857 22.9276 38.4598 23.1158 39.1321 23.3368ZM39.0258 20.1073C38.9791 20.1073 38.9313 20.101 38.884 20.0881C38.5074 19.9842 38.1459 19.8937 37.7788 19.811C37.53 19.7549 37.3612 19.5335 37.3612 19.2884C37.3615 19.2493 37.3658 19.21 37.3744 19.1705C37.4392 18.8817 37.7249 18.7002 38.0135 18.7651C38.3969 18.8517 38.7742 18.9462 39.1672 19.0542C39.4047 19.1199 39.5606 19.3356 39.5606 19.5711C39.5606 19.6179 39.5542 19.6656 39.5413 19.7131C39.476 19.9509 39.2607 20.1073 39.0258 20.1073ZM24.8346 19.7138C24.9003 19.9513 25.1153 20.1073 25.3499 20.1073C25.397 20.1073 25.4448 20.101 25.4924 20.0878C25.8493 19.989 26.2203 19.8959 26.5955 19.811C26.8434 19.7544 27.012 19.5339 27.0124 19.2893C27.0124 19.25 27.0079 19.21 26.9991 19.1699C26.9338 18.8812 26.6467 18.6997 26.3594 18.7654C25.9683 18.8542 25.5808 18.9514 25.208 19.0545C24.971 19.1201 24.8156 19.3354 24.8153 19.5702C24.8153 19.6177 24.8215 19.6658 24.8346 19.7138ZM85.9144 35.1249C85.9144 34.4468 85.7166 33.852 85.321 33.3403C84.9253 32.8288 84.3774 32.4523 83.6779 32.2109C84.217 31.9695 84.6414 31.6246 84.9509 31.1762C85.2607 30.7279 85.4156 30.2164 85.4156 29.6417C85.4156 28.9406 85.1802 28.3254 84.7101 27.7967C84.2399 27.2679 83.609 26.8655 82.8177 26.5896C82.0263 26.3137 81.1602 26.1758 80.2198 26.1758C78.7404 26.1758 77.3638 26.5033 76.0908 27.1587L76.9338 29.3312C77.4384 29.0439 77.9718 28.8284 78.5337 28.6847C79.0957 28.5409 79.6406 28.4691 80.1682 28.4691C80.8792 28.4691 81.4612 28.6013 81.9146 28.8656C82.3673 29.1302 82.5941 29.4979 82.5941 29.9692C82.5941 30.3716 82.4362 30.6877 82.121 30.9176C81.8053 31.1476 81.3667 31.2623 80.8047 31.2623H78.0695V33.366H81.0113C81.6535 33.366 82.1608 33.4811 82.5338 33.7109C82.9064 33.941 83.0931 34.2798 83.0931 34.7282C83.0931 35.2687 82.8202 35.6884 82.2757 35.987C81.7308 36.2859 81.0456 36.4354 80.2198 36.4354C79.6118 36.4354 78.9899 36.352 78.3532 36.1853C77.7166 36.0188 77.1343 35.7745 76.607 35.4527L75.7468 37.4525C76.4805 37.8782 77.2578 38.1943 78.0778 38.4012C78.8979 38.6078 79.7209 38.7114 80.5468 38.7114C81.5214 38.7114 82.419 38.5674 83.2392 38.2803C84.0591 37.9931 84.7101 37.5793 85.1918 37.0388C85.6735 36.4987 85.9144 35.8605 85.9144 35.1249ZM90.9469 36.2276C91.3253 35.768 91.6061 35.0523 91.7898 34.0808C91.9732 33.1096 92.0935 31.9055 92.1511 30.4684L92.2027 28.7097H96.3317V36.2276H90.9469ZM100.771 41.0038V36.2276H99.0844V26.4336H89.8285L89.6909 30.2097C89.6223 32.1299 89.4385 33.6068 89.1405 34.6412C88.842 35.6757 88.3318 36.2046 87.6092 36.2276H87.1274L87.1102 41.0038H89.6909V38.5036H98.1898V41.0038H100.771ZM110.021 35.8417C110.594 35.514 111.045 35.0571 111.371 34.4707C111.698 33.8845 111.862 33.218 111.862 32.4707C111.862 31.7236 111.698 31.0568 111.371 30.4704C111.045 29.8843 110.594 29.4271 110.021 29.0996C109.447 28.7721 108.805 28.6081 108.094 28.6081C107.383 28.6081 106.74 28.7721 106.167 29.0996C105.593 29.4271 105.144 29.8843 104.817 30.4704C104.49 31.0568 104.326 31.7236 104.326 32.4707C104.326 33.218 104.49 33.8845 104.817 34.4707C105.144 35.0571 105.593 35.514 106.167 35.8417C106.74 36.1692 107.383 36.3331 108.094 36.3331C108.805 36.3331 109.447 36.1692 110.021 35.8417ZM104.713 37.9023C103.709 37.3619 102.924 36.6178 102.356 35.6694C101.789 34.721 101.505 33.6549 101.505 32.4707C101.505 31.2867 101.789 30.2204 102.356 29.272C102.924 28.3238 103.709 27.5796 104.713 27.0391C105.717 26.4988 106.844 26.2285 108.094 26.2285C109.344 26.2285 110.468 26.4988 111.466 27.0391C112.464 27.5796 113.249 28.3238 113.823 29.272C114.396 30.2204 114.683 31.2867 114.683 32.4707C114.683 33.6549 114.396 34.721 113.823 35.6694C113.249 36.6178 112.464 37.3619 111.466 37.9023C110.468 38.4428 109.344 38.7126 108.094 38.7126C106.844 38.7126 105.717 38.4428 104.713 37.9023ZM124.305 30.8134C124.305 31.4801 124.087 31.9945 123.651 32.3566C123.215 32.7186 122.579 32.8996 121.742 32.8996H119.471V28.7097H121.742C122.579 28.7097 123.215 28.8907 123.651 29.2527C124.087 29.6149 124.305 30.135 124.305 30.8134ZM126.49 28.4855C126.065 27.8301 125.46 27.3246 124.675 26.968C123.889 26.6119 122.963 26.4336 121.897 26.4336H116.683V38.5036H119.471V35.1759H121.897C122.963 35.1759 123.889 35.0005 124.675 34.6499C125.46 34.2992 126.065 33.7937 126.49 33.1326C126.914 32.4715 127.127 31.6986 127.127 30.8134C127.127 29.9165 126.914 29.1407 126.49 28.4855ZM136.961 35.8397C137.535 35.5121 137.985 35.0551 138.312 34.4687C138.639 33.8826 138.802 33.216 138.802 32.4688C138.802 31.7216 138.639 31.0549 138.312 30.4685C137.985 29.8823 137.535 29.4251 136.961 29.0976C136.388 28.7701 135.745 28.6062 135.034 28.6062C134.323 28.6062 133.681 28.7701 133.108 29.0976C132.534 29.4251 132.084 29.8823 131.757 30.4685C131.43 31.0549 131.267 31.7216 131.267 32.4688C131.267 33.216 131.43 33.8826 131.757 34.4687C132.084 35.0551 132.534 35.5121 133.108 35.8397C133.681 36.1672 134.323 36.3312 135.034 36.3312C135.745 36.3312 136.388 36.1672 136.961 35.8397ZM131.654 37.9003C130.65 37.36 129.865 36.6158 129.297 35.6674C128.729 34.719 128.445 33.6529 128.445 32.4688C128.445 31.2847 128.729 30.2184 129.297 29.27C129.865 28.3218 130.65 27.5776 131.654 27.0371C132.657 26.4968 133.784 26.2266 135.034 26.2266C136.285 26.2266 137.409 26.4968 138.407 27.0371C139.404 27.5776 140.19 28.3218 140.763 29.27C141.337 30.2184 141.624 31.2847 141.624 32.4688C141.624 33.6529 141.337 34.719 140.763 35.6674C140.19 36.6158 139.404 37.36 138.407 37.9003C137.409 38.4408 136.285 38.7106 135.034 38.7106C133.784 38.7106 132.657 38.4408 131.654 37.9003ZM149.456 33.3844C150.764 33.3844 151.418 33.8844 151.418 34.8846C151.418 35.9191 150.764 36.4365 149.456 36.4365H146.394V33.3844H149.456ZM148.992 31.436H146.394V28.5045H148.992C149.588 28.5045 150.044 28.6312 150.36 28.884C150.675 29.137 150.833 29.499 150.833 29.9703C150.833 30.4531 150.678 30.8181 150.368 31.0651C150.058 31.3127 149.6 31.436 148.992 31.436ZM154.239 35.1088C154.239 34.3845 154.044 33.7755 153.654 33.281C153.264 32.7868 152.702 32.4303 151.968 32.212C152.507 31.9477 152.926 31.5886 153.224 31.1342C153.522 30.6802 153.671 30.1545 153.671 29.5565C153.671 28.5563 153.281 27.7864 152.501 27.2459C151.721 26.7058 150.632 26.4355 149.232 26.4355H143.624V38.5056H149.56C151.062 38.5056 152.217 38.207 153.026 37.609C153.835 37.0115 154.239 36.1777 154.239 35.1088ZM163.285 35.9018C163.692 35.5457 163.896 35.0284 163.896 34.35C163.896 33.0973 163.127 32.4707 161.59 32.4707H159.079V36.4365H161.59C162.313 36.4365 162.878 36.2584 163.285 35.9018ZM165.521 31.3842C166.307 32.0394 166.7 33.011 166.7 34.2984C166.7 35.6663 166.267 36.7096 165.401 37.428C164.535 38.1466 163.316 38.5056 161.745 38.5056H156.308V26.4355H159.079V30.4013H162.141C163.609 30.4013 164.736 30.729 165.521 31.3842ZM170.662 30.9014C170.662 30.1771 170.871 29.6314 171.29 29.2633C171.708 28.8956 172.314 28.7116 173.105 28.7116H175.479V33.0911H173.036C172.256 33.0911 171.665 32.9015 171.264 32.5222C170.863 32.143 170.662 31.6027 170.662 30.9014ZM178.232 38.5056V26.4355H173.036C171.981 26.4355 171.063 26.6166 170.284 26.9786C169.503 27.3408 168.901 27.8579 168.477 28.5306C168.053 29.2031 167.841 30.0048 167.841 30.9359C167.841 31.8787 168.058 32.686 168.494 33.3585C168.93 34.0312 169.555 34.5342 170.369 34.8673L167.858 38.5056H170.8L172.933 35.2984H175.479V38.5056H178.232ZM164.135 48.7971C163.796 48.5092 163.623 48.1022 163.614 47.5762H164.261C164.27 47.9071 164.388 48.1722 164.617 48.371C164.845 48.5705 165.141 48.6702 165.505 48.6702C165.868 48.6702 166.167 48.5705 166.4 48.371C166.632 48.1722 166.753 47.9071 166.761 47.5762H167.408C167.4 48.1022 167.224 48.5092 166.882 48.7971C166.539 49.0858 166.08 49.2298 165.505 49.2298C164.93 49.2298 164.473 49.0858 164.135 48.7971ZM162.472 50.1964H163.373V55.5125L167.827 50.1964H168.627V56.8859H167.726V51.5696L163.284 56.8859H162.472V50.1964ZM86.1938 47.9824V56.8852H85.2931V49.7632L81.8033 55.7531H81.3591L77.8695 49.8013V56.8852H76.9686V47.9824H77.7427L81.6003 54.5831L85.4197 47.9824H86.1938ZM213 53.7161V53.366C212.977 52.7748 212.834 52.2438 212.572 51.7724C212.285 51.2553 211.887 50.8547 211.38 50.5703C210.872 50.2865 210.305 50.1445 209.679 50.1445C209.121 50.1445 208.619 50.2632 208.175 50.5006C207.731 50.7379 207.374 51.0773 207.103 51.5181V50.1954H206.24V59.3521H207.141V55.6259C207.42 56.058 207.778 56.3867 208.213 56.6115C208.649 56.8362 209.138 56.9484 209.679 56.9484C210.314 56.9484 210.882 56.8066 211.386 56.5226C211.889 56.2387 212.285 55.8378 212.572 55.3205C212.834 54.8496 212.977 54.3145 213 53.7161ZM209.666 51.0228C211.054 51.0228 212.179 52.1508 212.179 53.5423C212.179 54.9337 211.054 56.0617 209.666 56.0617C208.277 56.0617 207.152 54.9337 207.152 53.5423C207.152 52.1508 208.277 51.0228 209.666 51.0228ZM89.1128 53.146C89.1719 52.4846 89.4193 51.9484 89.8551 51.5371C90.2908 51.1258 90.8301 50.9203 91.473 50.9203C92.1244 50.9203 92.6678 51.1258 93.1036 51.5371C93.5393 51.9484 93.7865 52.4846 93.8459 53.146H89.1128ZM89.1128 53.82H94.6961L94.7088 53.5399C94.7088 52.8786 94.5691 52.2917 94.29 51.7785C94.0108 51.2657 93.6258 50.8654 93.1353 50.5769C92.6445 50.2887 92.0904 50.1445 91.473 50.1445C90.8553 50.1445 90.2992 50.2887 89.8043 50.5769C89.3094 50.8654 88.9201 51.268 88.6369 51.7851C88.3534 52.3025 88.2118 52.8873 88.2118 53.5399C88.2118 54.1931 88.3598 54.7779 88.656 55.2952C88.9521 55.8124 89.3642 56.2173 89.8931 56.5096C90.4218 56.8024 91.0288 56.9484 91.714 56.9484C92.247 56.9484 92.7356 56.8553 93.1797 56.6686C93.6238 56.4822 93.9938 56.2109 94.29 55.8548L93.7824 55.2699C93.5286 55.5583 93.2284 55.7765 92.8815 55.9245C92.5346 56.073 92.1539 56.1474 91.7395 56.1474C91.0034 56.1474 90.3944 55.9331 89.9122 55.5048C89.4299 55.077 89.1635 54.5152 89.1128 53.82ZM97.8757 54.831C97.7569 55.4458 97.5457 55.8673 97.2412 56.0963H101.403V50.9965H98.1929L98.1168 52.4845C98.0742 53.434 97.9939 54.2164 97.8757 54.831ZM103.345 56.0963V58.5H102.495V56.8849H96.5179V58.5H95.6677V56.0963H96.0484C96.4966 56.071 96.8012 55.7403 96.9621 55.1044C97.1227 54.4683 97.2326 53.578 97.292 52.4336L97.3808 50.1953H102.304V56.0963H103.345ZM105.924 50.1953H105.023V56.8849H105.836L110.277 51.5685V56.8849H111.177V50.1953H110.378L105.924 55.5114V50.1953ZM120.553 56.0963V58.5637H119.702V56.8849H113.599V50.1953H114.5V56.0963H118.573V50.1953H119.474V56.0963H120.553ZM123.126 50.1953H122.225V56.8849H123.038L127.479 51.5685V56.8849H128.38V50.1953H127.581L123.126 55.5114V50.1953ZM130.801 50.1953H131.702V53.1583H135.902V50.1953H136.803V56.8849H135.902V53.9341H131.702V56.8849H130.801V50.1953ZM139.166 55.3014C139.462 55.8231 139.87 56.228 140.39 56.5162C140.91 56.8044 141.501 56.9484 142.16 56.9484C142.727 56.9484 143.239 56.8362 143.696 56.6115C144.153 56.3867 144.512 56.058 144.775 55.6259L144.102 55.1678C143.882 55.4987 143.603 55.7447 143.264 55.9055C142.926 56.0668 142.558 56.1474 142.16 56.1474C141.678 56.1474 141.245 56.039 140.86 55.8231C140.475 55.6069 140.174 55.3014 139.959 54.9074C139.743 54.5131 139.635 54.0573 139.635 53.5399C139.635 53.0314 139.743 52.5779 139.959 52.1792C140.174 51.7807 140.475 51.4735 140.86 51.2573C141.245 51.0408 141.678 50.933 142.16 50.933C142.558 50.933 142.926 51.0157 143.264 51.1808C143.603 51.3462 143.882 51.5944 144.102 51.925L144.775 51.4671C144.512 51.0348 144.155 50.7061 143.702 50.4815C143.25 50.2569 142.735 50.1445 142.16 50.1445C141.501 50.1445 140.91 50.2887 140.39 50.5769C139.87 50.8654 139.462 51.268 139.166 51.7851C138.87 52.3025 138.722 52.8873 138.722 53.5399C138.722 54.1931 138.87 54.7802 139.166 55.3014ZM148.902 53.9089H147.379V56.8849H146.478V50.1953H147.379V53.1331H148.915L151.262 50.1953H152.239L149.613 53.4384L152.43 56.8849H151.364L148.902 53.9089ZM154.797 50.1953H153.896V56.8849H154.709L159.15 51.5685V56.8849H160.051V50.1953H159.251L154.797 55.5114V50.1953ZM182.064 58.5637V56.0963H180.985V50.1953H180.084V56.0963H176.011V50.1953H175.11V56.8849H181.214V58.5637H182.064ZM184.699 51.5371C184.263 51.9484 184.016 52.4846 183.956 53.146H188.689C188.63 52.4846 188.383 51.9484 187.947 51.5371C187.511 51.1258 186.968 50.9203 186.317 50.9203C185.674 50.9203 185.134 51.1258 184.699 51.5371ZM189.54 53.82H183.956C184.007 54.5152 184.274 55.077 184.756 55.5048C185.238 55.9331 185.847 56.1474 186.583 56.1474C186.998 56.1474 187.378 56.073 187.725 55.9245C188.072 55.7765 188.372 55.5583 188.626 55.2699L189.134 55.8548C188.837 56.2109 188.467 56.4822 188.023 56.6686C187.579 56.8553 187.091 56.9484 186.558 56.9484C185.872 56.9484 185.265 56.8024 184.737 56.5096C184.208 56.2173 183.796 55.8124 183.5 55.2952C183.203 54.7779 183.055 54.1931 183.055 53.5399C183.055 52.8873 183.197 52.3025 183.48 51.7851C183.764 51.268 184.153 50.8654 184.648 50.5769C185.143 50.2887 185.699 50.1445 186.317 50.1445C186.934 50.1445 187.488 50.2887 187.979 50.5769C188.469 50.8654 188.854 51.2657 189.134 51.7785C189.413 52.2917 189.552 52.8786 189.552 53.5399L189.54 53.82ZM192.365 50.1953H191.464V56.8849H192.365V53.9341H196.566V56.8849H197.467V50.1953H196.566V53.1583H192.365V50.1953ZM204.825 50.9965H202.3V56.8849H201.399V50.9965H198.874V50.1953H204.825V50.9965Z" fill="#3C3C3C"/>
<path fill-rule="evenodd" clip-rule="evenodd" d="M45.3374 2.96659C45.2844 2.96659 45.2307 2.95868 45.1774 2.94187C41.7908 1.87856 38.2658 1.23563 34.7003 1.03188C34.4157 1.01553 34.1962 0.77914 34.1962 0.497299C34.1962 0.48687 34.1964 0.476634 34.1969 0.466205C34.2138 0.170716 34.462 -0.0543446 34.7613 -0.0382505C38.4145 0.170716 42.0264 0.829289 45.4972 1.91899C45.7256 1.99077 45.872 2.20193 45.8722 2.42976C45.8722 2.48313 45.8643 2.53714 45.8475 2.59076C45.7759 2.81988 45.565 2.96659 45.3374 2.96659ZM18.5278 2.59079C18.5994 2.8199 18.8104 2.96662 19.0378 2.96662C19.0909 2.96662 19.1448 2.9587 19.198 2.9419C22.5824 1.87859 26.1067 1.23566 29.6729 1.03191C29.9575 1.01556 30.1773 0.779164 30.1773 0.497323C30.1773 0.486894 30.1771 0.476659 30.1764 0.46623C30.1594 0.170741 29.9095 -0.0545776 29.612 -0.038226C25.9581 0.170741 22.3466 0.829314 18.878 1.91902C18.6498 1.9908 18.5033 2.20221 18.5031 2.42978C18.5031 2.48315 18.511 2.53716 18.5278 2.59079ZM57.212 12.7041C57.3101 12.782 57.4268 12.8197 57.5431 12.8197C57.7009 12.8197 57.8573 12.75 57.9629 12.616C58.0404 12.5176 58.078 12.4005 58.078 12.2839C58.078 12.1256 58.0085 11.9691 57.8748 11.8633C51.3372 6.68394 43.4936 3.63049 35.1921 3.0332C34.9004 3.00777 34.6417 3.23393 34.6206 3.52922C34.6195 3.54236 34.619 3.55555 34.619 3.56849C34.6192 3.84692 34.8341 4.08196 35.1155 4.10198C43.202 4.68427 50.843 7.65866 57.212 12.7041ZM61.8754 21.7489C61.9808 21.887 62.1397 21.9594 62.3005 21.9594C62.4138 21.9594 62.528 21.9233 62.625 21.849C62.7623 21.7437 62.8346 21.5846 62.8348 21.4236C62.835 21.3096 62.7993 21.1952 62.7247 21.098C55.8085 12.0362 45.3414 6.53519 34.0066 6.00466C33.7154 5.98901 33.4617 6.21955 33.4478 6.51497C33.4474 6.5236 33.4471 6.53229 33.4471 6.54066C33.4474 6.82501 33.6706 7.06185 33.957 7.07524C44.9754 7.59077 55.1514 12.9394 61.8754 21.7489ZM0.534416 30.3522C0.4592 30.3522 0.383021 30.3361 0.310054 30.3025C0.114981 30.2119 7.06253e-05 30.0182 -0.00012207 29.8158C-0.00012207 29.7407 0.0160001 29.6639 0.0496576 29.591C4.61789 19.7014 13.6511 12.342 24.214 9.90422C24.502 9.83837 24.7884 10.018 24.855 10.3064C24.864 10.3469 24.8686 10.3873 24.8686 10.4273C24.8686 10.6712 24.7009 10.8917 24.4537 10.9489C14.2107 13.3126 5.45072 20.4501 1.02001 30.0413C0.92957 30.2369 0.736425 30.3522 0.534416 30.3522ZM63.3555 30.0413C63.4462 30.2369 63.6393 30.3522 63.8414 30.3522C63.9163 30.3522 63.9927 30.3361 64.0657 30.3025C64.2606 30.2119 64.3755 30.0182 64.3757 29.8158C64.3757 29.7407 64.3596 29.6639 64.3261 29.591C59.7581 19.7016 50.724 12.3422 40.1596 9.90422C39.8714 9.83837 39.585 10.018 39.5186 10.3064C39.5093 10.3469 39.5048 10.3873 39.5048 10.4273C39.505 10.6712 39.6724 10.8917 39.9196 10.9489C50.164 13.3129 58.9251 20.4504 63.3555 30.0413ZM1.10837 38.0979C1.07009 38.0979 1.03155 38.0938 0.992496 38.0852C0.743084 38.03 0.572998 37.8084 0.572998 37.5622C0.572998 37.524 0.577173 37.4852 0.58578 37.4461C3.1415 25.8585 11.8 16.6109 23.1822 13.3124C23.4661 13.2297 23.7623 13.394 23.8443 13.6783C23.8589 13.7283 23.8657 13.7784 23.8657 13.8282C23.8652 14.0605 23.7131 14.2742 23.4793 14.3419C12.4734 17.5314 4.10106 26.4733 1.63013 37.6776C1.57502 37.9276 1.3538 38.0979 1.10837 38.0979ZM63.2648 38.1C63.0194 38.1 62.7983 37.9297 62.7432 37.6796C60.2744 26.4746 51.9022 17.532 40.8939 14.3419C40.6601 14.2742 40.508 14.0605 40.5076 13.8282C40.5076 13.7784 40.5146 13.7283 40.5289 13.6783C40.6109 13.394 40.9077 13.2297 41.191 13.3124C52.5758 16.6116 61.2343 25.8601 63.7876 37.4484C63.796 37.4873 63.8003 37.5263 63.8003 37.5647C63.8 37.8106 63.6301 38.0321 63.3806 38.0872C63.3416 38.0959 63.3029 38.1 63.2648 38.1ZM2.07212 21.9594C1.95888 21.9594 1.84461 21.9233 1.74782 21.849C1.61036 21.7437 1.53804 21.5847 1.53784 21.4237C1.53765 21.3096 1.57349 21.1952 1.64794 21.098C8.5641 12.0362 19.0316 6.5352 30.3663 6.00468C30.6619 5.98884 30.9114 6.21956 30.925 6.51499C30.9255 6.52362 30.9257 6.53231 30.9257 6.54068C30.9255 6.82503 30.7023 7.06187 30.4159 7.07526C19.3972 7.59079 9.2212 12.9394 2.49715 21.7489C2.39193 21.887 2.23296 21.9594 2.07212 21.9594ZM6.82986 12.8197C6.67191 12.8197 6.51551 12.75 6.41004 12.616C6.33232 12.5176 6.29468 12.4005 6.29468 12.2839C6.29468 12.1256 6.36424 11.9691 6.49791 11.8633C13.0354 6.68413 20.879 3.63075 29.1807 3.0332C29.4703 3.00777 29.7314 3.23393 29.7522 3.52922C29.7531 3.54236 29.7535 3.55555 29.7535 3.56849C29.7533 3.84692 29.5385 4.08196 29.2571 4.10198C21.1703 4.68427 13.5296 7.65892 7.16084 12.7041C7.06289 12.782 6.94599 12.8197 6.82986 12.8197ZM104.911 19.4361C103.919 18.9014 103.139 18.1602 102.571 17.2118C102.004 16.2634 101.72 15.1917 101.72 13.9959C101.72 12.8005 102.004 11.7285 102.571 10.7801C103.139 9.83173 103.919 9.09043 104.911 8.55585C105.903 8.02126 107.018 7.75391 108.257 7.75391C109.301 7.75391 110.245 7.93809 111.087 8.30581C111.93 8.67391 112.639 9.20245 113.212 9.89211L111.423 11.5475C110.608 10.605 109.599 10.1335 108.395 10.1335C107.649 10.1335 106.984 10.2973 106.399 10.625C105.814 10.9525 105.358 11.4095 105.031 11.9958C104.705 12.5822 104.541 13.249 104.541 13.9959C104.541 14.7433 104.705 15.4099 105.031 15.9961C105.358 16.5825 105.814 17.0394 106.399 17.3669C106.984 17.6946 107.649 17.8583 108.395 17.8583C109.599 17.8583 110.608 17.3814 111.423 16.4274L113.212 18.0825C112.639 18.7838 111.927 19.3184 111.079 19.6861C110.23 20.054 109.284 20.238 108.24 20.238C107.013 20.238 105.903 19.9707 104.911 19.4361ZM82.1982 10.7026L84.108 15.3238H80.2888L82.1982 10.7026ZM79.3941 17.4447H84.9854L86.0522 20.0312H88.9769L83.5918 7.96094H80.8392L75.4716 20.0312H78.3273L79.3941 17.4447ZM93.2797 15.1686H95.2065L98.3375 20.0312H101.503L97.443 13.7892L101.383 7.96094H98.4409L95.2753 12.8408H93.2797V7.96094H90.5098V20.0312H93.2797V15.1686ZM117.621 7.96094H114.852V20.0312H117.484L123.23 12.1856V20.0312H125.983V7.96094H123.368L117.621 15.8238V7.96094ZM136.499 17.3669C137.073 17.0394 137.523 16.5825 137.85 15.9961C138.177 15.4099 138.34 14.7433 138.34 13.9959C138.34 13.249 138.177 12.5822 137.85 11.9958C137.523 11.4095 137.073 10.9525 136.499 10.625C135.926 10.2973 135.283 10.1335 134.573 10.1335C133.861 10.1335 133.219 10.2973 132.646 10.625C132.072 10.9525 131.622 11.4095 131.295 11.9958C130.968 12.5822 130.805 13.249 130.805 13.9959C130.805 14.7433 130.968 15.4099 131.295 15.9961C131.622 16.5825 132.072 17.0394 132.646 17.3669C133.219 17.6946 133.861 17.8583 134.573 17.8583C135.283 17.8583 135.926 17.6946 136.499 17.3669ZM131.192 19.4275C130.188 18.8874 129.403 18.1429 128.835 17.1945C128.267 16.2462 127.983 15.1801 127.983 13.9959C127.983 12.812 128.267 11.7458 128.835 10.7974C129.403 9.84898 130.188 9.10479 131.192 8.56447C132.195 8.02416 133.322 7.75391 134.573 7.75391C135.823 7.75391 136.947 8.02416 137.945 8.56447C138.943 9.10479 139.728 9.84898 140.302 10.7974C140.875 11.7458 141.162 12.812 141.162 13.9959C141.162 15.1801 140.875 16.2462 140.302 17.1945C139.728 18.1429 138.943 18.8874 137.945 19.4275C136.947 19.968 135.823 20.238 134.573 20.238C133.322 20.238 132.195 19.968 131.192 19.4275ZM154.105 12.8062L154.122 20.0312H156.737L156.72 7.96094H154.415L149.976 15.4618L145.468 7.96094H143.163V20.0312H145.778V12.9443L149.322 18.7551H150.561L154.105 12.8062ZM166.937 15.3238L165.028 10.7026L163.118 15.3238H166.937ZM167.815 17.4447H162.223L161.157 20.0312H158.301L163.669 7.96094H166.421L171.806 20.0312H168.881L167.815 17.4447Z" fill="#65A16A"/>
</g>
<defs>
<clipPath id="clip0_64_98">
<rect width="213" height="62" fill="white"/>
</clipPath>
</defs>
</svg>
