<?xml version="1.0" encoding="utf-8"?><svg viewBox="0 0 16 16" xmlns="http://www.w3.org/2000/svg" xmlns:xlink="http://www.w3.org/1999/xlink"><style>:root>svg{display:none}:root>svg:target{display:block}</style><svg viewBox="0 0 16 16" id="location-icon" xmlns="http://www.w3.org/2000/svg"><path fill-rule="evenodd" clip-rule="evenodd" d="M1.046 6.432c.417 2.818 1.996 4.694 4.817 7.709.666.713 1.524 1.567 1.721 1.714a.679.679 0 00.84 0c.196-.147 1.055-1.001 1.72-1.714 2.538-2.712 4.168-4.727 4.682-6.641.132-.491.174-1.26.174-1.772-.004-1.501-.73-2.937-2.042-4.019C11.876.812 10.602.271 9.1.067 8.745.021 7.769-.017 7.512.008c-.866.081-1.361.169-1.92.34-1.483.46-2.724 1.302-3.567 2.425-.794 1.06-1.141 2.565-.98 3.659zm5.987 6.617c.31.332.666.699.97 1.003a41.1 41.1 0 00.972-1.003l.001-.002c2.587-2.764 3.911-4.498 4.305-5.962v-.001c.074-.275.119-.863.119-1.354-.003-.96-.464-1.965-1.46-2.786l-.004-.003c-.831-.69-1.818-1.12-3.047-1.288a12.838 12.838 0 00-1.22-.052h-.01.008-.005c-.804.075-1.182.149-1.599.277-1.197.371-2.14 1.032-2.758 1.855-.543.725-.775 1.801-.677 2.464.335 2.259 1.546 3.797 4.404 6.85l.001.002zM8 8c.892 0 1.615-.672 1.615-1.5S8.892 5 8 5s-1.615.672-1.615 1.5S7.108 8 8 8z"/></svg><svg viewBox="0 0 16 16" id="time-icon" xmlns="http://www.w3.org/2000/svg"><g clip-path="url(#ba)"><path fill-rule="evenodd" clip-rule="evenodd" d="M3.063 1.712A8.123 8.123 0 017.28.03c.44-.043 1.464-.009 1.923.063a7.768 7.768 0 012.313.734c.84.413 1.437.841 2.128 1.528.687.691 1.115 1.288 1.528 2.129.275.559.412.925.562 1.487.197.75.244 1.16.244 2.028 0 .869-.047 1.278-.244 2.028a7.16 7.16 0 01-.562 1.488c-.413.84-.84 1.437-1.528 2.128-.69.688-1.288 1.116-2.128 1.528-.772.378-1.466.6-2.328.74-.61.098-1.766.098-2.375 0a7.887 7.887 0 01-2.329-.74c-.84-.412-1.437-.84-2.128-1.528-.687-.69-1.115-1.288-1.528-2.128a7.886 7.886 0 01-.74-2.328c-.097-.61-.097-1.766 0-2.375.08-.497.246-1.14.4-1.56a10.86 10.86 0 01.718-1.472c.457-.718 1.247-1.6 1.857-2.068zm8.734 1.331a6.281 6.281 0 00-3.078-1.247c-1.6-.19-3.203.253-4.516 1.247a7.82 7.82 0 00-1.16 1.16c-1.159 1.53-1.562 3.452-1.109 5.28a6.05 6.05 0 001.66 2.922 6.042 6.042 0 001.728 1.235c2.128 1.006 4.584.747 6.475-.684a7.82 7.82 0 001.16-1.16c.256-.334.518-.765.684-1.119 1.006-2.128.747-4.584-.685-6.475a7.818 7.818 0 00-1.16-1.159zm-4.375 1.31a.665.665 0 01.437-.35.671.671 0 01.77.387c.052.115.059.243.059 1.875v1.75l1.23 1.234h.001c1.287 1.29 1.3 1.303 1.3 1.563 0 .5-.547.821-1 .59-.06-.028-.716-.662-1.46-1.41-1.14-1.146-1.353-1.371-1.38-1.477-.023-.085-.035-.766-.035-2.066V4.512l.078-.16z"/></g><defs><clipPath id="ba"><path d="M0 0h16v16H0z"/></clipPath></defs></svg></svg>