<svg width="647" height="240" viewBox="0 0 647 240" fill="none" xmlns="http://www.w3.org/2000/svg">
<path d="M9.3 183.9V151.2L108.3 18H159.3L62.4 151.2L38.7 144.3H204V183.9H9.3ZM122.4 228V183.9L123.9 144.3V105H169.8V228H122.4Z" fill="#65A16A"/>
<g clip-path="url(#clip0_200_1738)">
<path fill-rule="evenodd" clip-rule="evenodd" d="M225.007 166.292C225.007 167.29 225.815 168.1 226.812 168.1C227.808 168.1 228.616 167.29 228.616 166.292L228.609 165.857C228.609 125.152 254.378 88.8479 292.731 75.5185C293.673 75.1904 294.172 74.1605 293.845 73.2169C293.519 72.2728 292.493 71.7731 291.549 72.1003C251.744 85.9348 225 123.612 225 165.857C225 165.876 225 165.895 225.001 165.914L225.007 166.292ZM421.195 168.1C420.199 168.1 419.39 167.29 419.39 166.292V165.857C419.39 125.15 393.621 88.8449 355.268 75.5185C354.326 75.1911 353.828 74.1605 354.153 73.2169C354.48 72.2728 355.508 71.7731 356.451 72.1003C396.256 85.9324 423 123.61 423 165.857V166.292C423 167.29 422.192 168.1 421.195 168.1ZM238.012 187.998C238.222 188.815 238.955 189.358 239.759 189.358C239.908 189.358 240.059 189.339 240.209 189.301C241.024 189.091 241.565 188.357 241.566 187.551C241.566 187.402 241.548 187.251 241.509 187.099C239.735 180.172 238.837 173.024 238.837 165.853C238.837 131.149 259.522 100.172 291.534 86.9365C292.231 86.6484 292.652 85.9739 292.652 85.2628C292.652 85.0336 292.607 84.8005 292.514 84.5752C292.135 83.6525 291.08 83.2111 290.158 83.5928C256.789 97.3897 235.227 129.679 235.227 165.853C235.227 173.327 236.164 180.777 238.012 187.998ZM408.246 189.364C408.097 189.364 407.946 189.345 407.796 189.307C406.981 189.097 406.44 188.363 406.439 187.557C406.439 187.409 406.457 187.257 406.496 187.106C408.265 180.196 409.161 173.048 409.161 165.859C409.161 131.152 388.476 100.176 356.463 86.9427C355.766 86.6546 355.346 85.98 355.346 85.269C355.346 85.0398 355.39 84.8067 355.482 84.5814C355.863 83.6579 356.918 83.2194 357.839 83.5981C391.209 97.392 412.771 129.682 412.771 165.859C412.771 173.351 411.836 180.801 409.993 188.004C409.783 188.821 409.05 189.364 408.246 189.364ZM257.339 207.477C257.681 208.026 258.27 208.327 258.871 208.327C259.198 208.327 259.528 208.239 259.825 208.052C260.374 207.71 260.675 207.12 260.674 206.516C260.674 206.189 260.586 205.859 260.4 205.561C252.99 193.67 249.074 179.94 249.074 165.855C249.074 137.295 264.904 111.574 290.388 98.7314C291.018 98.4142 291.382 97.7781 291.383 97.1165C291.383 96.843 291.321 96.5647 291.19 96.3034C290.741 95.4105 289.656 95.0503 288.767 95.5002C262.057 108.961 245.465 135.919 245.465 165.855C245.465 180.618 249.571 195.011 257.339 207.477ZM389.126 208.327C388.799 208.327 388.469 208.239 388.171 208.052C387.624 207.709 387.322 207.119 387.323 206.516C387.323 206.188 387.412 205.857 387.597 205.56C395.012 193.674 398.93 179.944 398.93 165.855C398.93 137.295 383.099 111.574 357.616 98.7314C356.987 98.4142 356.623 97.7781 356.621 97.1165C356.621 96.843 356.683 96.5647 356.815 96.3034C357.262 95.4105 358.347 95.0503 359.237 95.5002C385.947 108.961 402.54 135.919 402.54 165.855C402.54 180.623 398.431 195.016 390.658 207.478C390.316 208.026 389.727 208.327 389.126 208.327ZM289.177 224.746C289.466 224.919 289.783 225 290.097 225C290.713 225 291.313 224.684 291.65 224.115C291.822 223.824 291.903 223.506 291.903 223.191C291.903 222.575 291.587 221.974 291.02 221.637C271.457 209.995 259.304 188.624 259.304 165.861C259.304 143.286 270.743 122.685 289.903 110.753C290.454 110.41 290.756 109.818 290.755 109.213C290.755 108.888 290.667 108.559 290.483 108.262C289.956 107.413 288.842 107.153 287.998 107.681C267.771 120.277 255.695 142.027 255.695 165.861C255.695 189.893 268.524 212.457 289.177 224.746ZM356.35 224.115C356.687 224.684 357.288 225 357.903 225C358.217 225 358.534 224.919 358.823 224.746C379.476 212.461 392.305 189.897 392.305 165.86C392.305 142.024 380.232 120.275 360.01 107.68C359.165 107.153 358.052 107.414 357.524 108.262C357.341 108.559 357.253 108.888 357.253 109.212C357.252 109.818 357.554 110.41 358.105 110.752C377.26 122.682 388.696 143.283 388.696 165.86C388.696 188.627 376.544 210 356.98 221.637C356.413 221.973 356.098 222.574 356.097 223.19C356.096 223.506 356.178 223.824 356.35 224.115ZM337.76 222.354C336.952 222.354 336.217 221.806 336.011 220.985C335.974 220.838 335.957 220.69 335.956 220.545C335.956 219.735 336.502 218.997 337.322 218.79C361.547 212.685 378.467 190.919 378.467 165.861C378.467 149.014 370.87 133.369 357.623 122.938C357.171 122.581 356.934 122.05 356.934 121.514C356.934 121.124 357.06 120.73 357.319 120.398C357.935 119.614 359.068 119.476 359.854 120.094C373.977 131.216 382.076 147.897 382.076 165.861C382.076 192.58 364.035 215.788 338.201 222.298C338.054 222.335 337.906 222.354 337.76 222.354ZM309.797 222.292C309.945 222.329 310.092 222.348 310.239 222.348C311.045 222.348 311.782 221.8 311.988 220.979C312.024 220.832 312.042 220.684 312.043 220.539C312.043 219.729 311.497 218.991 310.677 218.784C286.451 212.678 269.531 190.913 269.531 165.855C269.531 149.014 277.128 133.369 290.375 122.931C290.828 122.574 291.064 122.043 291.064 121.508C291.064 121.117 290.938 120.724 290.678 120.392C290.062 119.606 288.928 119.469 288.144 120.088C274.022 131.217 265.922 147.898 265.922 165.855C265.922 192.573 283.964 215.78 309.797 222.292ZM339.076 211.259C338.328 211.259 337.63 210.79 337.371 210.042C337.303 209.846 337.272 209.647 337.271 209.452C337.27 208.701 337.738 208 338.485 207.741C356.282 201.56 368.24 184.727 368.24 165.856C368.24 154.999 364.271 144.542 357.065 136.413C356.76 136.069 356.61 135.64 356.61 135.213C356.61 134.715 356.814 134.218 357.217 133.86C357.962 133.197 359.102 133.264 359.764 134.011C367.557 142.803 371.849 154.112 371.849 165.856C371.849 186.268 358.916 204.473 339.667 211.159C339.472 211.227 339.272 211.259 339.076 211.259ZM308.333 211.159C308.529 211.227 308.728 211.259 308.924 211.259C309.671 211.259 310.37 210.79 310.629 210.042C310.697 209.846 310.729 209.647 310.73 209.452C310.73 208.701 310.261 208 309.514 207.741C291.723 201.561 279.768 184.729 279.768 165.856C279.768 154.991 283.736 144.535 290.941 136.413C291.246 136.07 291.396 135.642 291.397 135.214C291.398 134.715 291.193 134.218 290.791 133.861C290.046 133.196 288.906 133.264 288.244 134.011C280.451 142.795 276.159 154.105 276.159 165.856C276.159 186.269 289.089 204.475 308.333 211.159ZM339.068 200.219C338.388 200.219 337.736 199.831 337.43 199.172C337.316 198.926 337.262 198.667 337.261 198.413C337.261 197.73 337.648 197.076 338.307 196.769C350.27 191.199 358.001 179.064 358.001 165.856C358.001 160.641 356.858 155.641 354.603 150.991C354.48 150.738 354.422 150.468 354.421 150.203C354.421 149.532 354.794 148.887 355.437 148.575C356.334 148.136 357.413 148.513 357.848 149.411C360.345 154.556 361.611 160.088 361.611 165.856C361.611 180.466 353.061 193.888 339.828 200.05C339.582 200.164 339.323 200.219 339.068 200.219ZM308.168 200.05C308.414 200.164 308.673 200.218 308.927 200.218C309.609 200.218 310.26 199.83 310.565 199.171C310.679 198.926 310.734 198.667 310.735 198.413C310.735 197.73 310.348 197.075 309.69 196.769C297.725 191.198 289.995 179.064 289.995 165.856C289.995 160.639 291.138 155.639 293.394 150.992C293.517 150.738 293.576 150.468 293.576 150.203C293.576 149.532 293.203 148.887 292.56 148.574C291.664 148.137 290.584 148.512 290.148 149.41C287.652 154.554 286.386 160.087 286.386 165.856C286.386 180.465 294.936 193.888 308.168 200.05ZM309.457 188.744C309.102 188.744 308.745 188.639 308.431 188.422C301.033 183.288 296.616 174.851 296.616 165.855C296.616 159.226 299.015 152.823 303.371 147.824C304.027 147.071 305.168 146.995 305.917 147.652C306.326 148.01 306.536 148.512 306.535 149.017C306.534 149.437 306.387 149.861 306.089 150.204C302.308 154.543 300.226 160.101 300.226 165.855C300.226 173.664 304.061 180.989 310.487 185.449C310.991 185.8 311.263 186.363 311.263 186.937C311.263 187.291 311.16 187.652 310.942 187.966C310.592 188.472 310.029 188.744 309.457 188.744ZM337.065 187.967C337.416 188.473 337.978 188.745 338.55 188.745C338.904 188.745 339.264 188.64 339.577 188.422C346.969 183.284 351.383 174.848 351.383 165.855C351.383 159.231 348.987 152.828 344.637 147.826C343.982 147.072 342.841 146.995 342.091 147.651C341.681 148.008 341.471 148.51 341.471 149.015C341.471 149.437 341.617 149.86 341.916 150.203C345.693 154.546 347.774 160.104 347.774 165.855C347.774 173.662 343.941 180.987 337.52 185.449C337.014 185.801 336.744 186.365 336.744 186.938C336.744 187.293 336.848 187.653 337.065 187.967ZM351.463 144.639C350.947 144.639 350.436 144.419 350.078 143.992C347.944 141.439 345.455 139.215 342.679 137.381C342.153 137.034 341.868 136.456 341.868 135.869C341.868 135.528 341.965 135.182 342.166 134.876C342.714 134.04 343.834 133.812 344.666 134.362C347.734 136.388 350.485 138.847 352.845 141.669C353.128 142.007 353.266 142.418 353.267 142.828C353.267 143.344 353.048 143.858 352.621 144.217C352.283 144.501 351.872 144.639 351.463 144.639ZM295.374 144.215C295.713 144.5 296.125 144.639 296.535 144.639C297.049 144.639 297.56 144.42 297.917 143.995C300.069 141.43 302.559 139.206 305.318 137.381C305.844 137.034 306.13 136.456 306.129 135.868C306.129 135.527 306.033 135.182 305.831 134.876C305.282 134.04 304.162 133.812 303.331 134.362C300.281 136.377 297.531 138.835 295.154 141.666C294.87 142.006 294.731 142.419 294.731 142.829C294.731 143.345 294.95 143.858 295.374 144.215ZM350.24 129.761C349.884 129.761 349.525 129.656 349.21 129.437C347.029 127.915 344.679 126.58 342.229 125.47C341.562 125.168 341.167 124.51 341.167 123.822C341.167 123.572 341.218 123.319 341.327 123.077C341.739 122.168 342.808 121.764 343.715 122.174C346.366 123.375 348.909 124.82 351.273 126.469C351.776 126.82 352.045 127.381 352.046 127.953C352.047 128.31 351.942 128.671 351.723 128.986C351.372 129.491 350.81 129.761 350.24 129.761ZM296.281 128.987C296.632 129.491 297.193 129.762 297.763 129.762C298.119 129.762 298.479 129.657 298.793 129.437C300.984 127.908 303.331 126.573 305.766 125.47C306.434 125.168 306.828 124.511 306.829 123.822C306.829 123.573 306.778 123.32 306.668 123.078C306.257 122.167 305.19 121.764 304.281 122.174C301.644 123.368 299.103 124.813 296.731 126.469C296.227 126.82 295.958 127.382 295.957 127.954C295.956 128.31 296.062 128.671 296.281 128.987ZM298.371 117.472C297.715 117.472 297.084 117.114 296.763 116.489C296.629 116.225 296.565 115.943 296.564 115.666C296.564 115.009 296.922 114.374 297.545 114.054C300.111 112.735 302.791 111.601 305.512 110.686C306.456 110.368 307.479 110.878 307.797 111.825C307.861 112.015 307.891 112.209 307.891 112.399C307.892 113.156 307.416 113.861 306.661 114.115C304.111 114.974 301.598 116.035 299.193 117.272C298.93 117.408 298.648 117.472 298.371 117.472ZM348.801 117.264C349.065 117.401 349.348 117.466 349.626 117.466C350.28 117.466 350.911 117.108 351.231 116.484C351.368 116.219 351.432 115.935 351.432 115.656C351.431 115.001 351.074 114.369 350.453 114.048C347.893 112.729 345.212 111.594 342.484 110.679C341.536 110.361 340.515 110.873 340.2 111.82C340.136 112.01 340.105 112.204 340.105 112.394C340.105 113.151 340.583 113.856 341.337 114.109C343.892 114.967 346.403 116.028 348.801 117.264ZM348.893 105.854C348.667 105.854 348.438 105.811 348.215 105.721C345.641 104.675 342.975 103.793 340.292 103.098C339.479 102.887 338.938 102.151 338.939 101.346C338.939 101.197 338.958 101.045 338.996 100.895C339.246 99.9268 340.23 99.3474 341.195 99.5951C344.032 100.33 346.85 101.264 349.572 102.368C350.273 102.654 350.699 103.331 350.699 104.046C350.699 104.272 350.656 104.502 350.566 104.725C350.282 105.427 349.606 105.854 348.893 105.854ZM297.435 104.723C297.719 105.427 298.394 105.854 299.108 105.854C299.333 105.854 299.562 105.811 299.784 105.721C302.377 104.67 305.044 103.788 307.709 103.098C308.522 102.887 309.063 102.151 309.063 101.346C309.062 101.197 309.044 101.045 309.005 100.895C308.755 99.9268 307.765 99.3474 306.806 99.5951C303.988 100.325 301.17 101.258 298.431 102.368C297.729 102.652 297.302 103.329 297.302 104.044C297.302 104.27 297.345 104.5 297.435 104.723ZM300.001 94.6096C299.242 94.6096 298.536 94.1267 298.286 93.3657C298.225 93.1786 298.196 92.9885 298.195 92.8017C298.194 92.0413 298.677 91.3331 299.436 91.0826C301.805 90.3009 304.189 89.6355 306.524 89.1045C307.501 88.8792 308.464 89.4938 308.683 90.468C308.714 90.6027 308.729 90.7384 308.729 90.871C308.728 91.6965 308.16 92.4415 307.323 92.6316C305.099 93.138 302.825 93.7726 300.564 94.5184C300.378 94.5796 300.187 94.6096 300.001 94.6096ZM347.44 94.5184C347.627 94.5797 347.816 94.6097 348.003 94.6097C348.762 94.6097 349.468 94.1261 349.717 93.3642C349.779 93.1771 349.808 92.987 349.808 92.8002C349.808 92.0398 349.326 91.3316 348.565 91.0826C346.19 90.3009 343.807 89.6355 341.481 89.1045C340.503 88.8793 339.542 89.493 339.321 90.4665C339.289 90.6021 339.275 90.737 339.275 90.8695C339.275 91.695 339.842 92.4406 340.679 92.6316C342.896 93.1374 345.171 93.7726 347.44 94.5184ZM347.081 83.6199C346.924 83.6199 346.762 83.5986 346.603 83.5549C345.332 83.2045 344.112 82.8988 342.873 82.6199C342.033 82.4304 341.463 81.6833 341.463 80.8562C341.464 80.7244 341.479 80.5918 341.508 80.4585C341.727 79.4837 342.691 78.8712 343.665 79.0904C344.959 79.3824 346.232 79.7013 347.558 80.0661C348.36 80.2877 348.886 81.0157 348.886 81.8104C348.886 81.9683 348.865 82.1293 348.821 82.2894C348.601 83.092 347.874 83.6199 347.081 83.6199ZM299.186 82.2918C299.408 83.0935 300.134 83.6199 300.925 83.6199C301.084 83.6199 301.246 83.5986 301.406 83.554C302.611 83.2206 303.863 82.9064 305.129 82.6199C305.966 82.4289 306.535 81.6848 306.536 80.8593C306.536 80.7268 306.521 80.5918 306.491 80.4563C306.271 79.4821 305.302 78.8697 304.332 79.0913C303.012 79.3909 301.705 79.7189 300.447 80.067C299.647 80.2883 299.122 81.015 299.121 81.8074C299.121 81.9677 299.142 82.13 299.186 82.2918Z" fill="#3C3C3C"/>
<path fill-rule="evenodd" clip-rule="evenodd" d="M367.825 25.1662C367.646 25.1662 367.465 25.1394 367.286 25.0826C355.87 21.4861 343.988 19.3115 331.969 18.6223C331.01 18.567 330.27 17.7675 330.27 16.8142C330.27 16.7789 330.271 16.7443 330.272 16.709C330.329 15.7095 331.166 14.9483 332.175 15.0027C344.489 15.7095 356.664 17.9371 368.364 21.6228C369.134 21.8656 369.627 22.5798 369.628 23.3504C369.628 23.5309 369.601 23.7136 369.545 23.895C369.303 24.67 368.592 25.1662 367.825 25.1662ZM277.454 23.8951C277.696 24.6701 278.407 25.1663 279.174 25.1663C279.353 25.1663 279.534 25.1395 279.714 25.0827C291.122 21.4862 303.002 19.3116 315.023 18.6224C315.982 18.5671 316.723 17.7675 316.723 16.8142C316.723 16.779 316.722 16.7444 316.72 16.7091C316.663 15.7096 315.82 14.9475 314.817 15.0028C302.501 15.7096 290.327 17.9372 278.635 21.6229C277.866 21.8657 277.372 22.5808 277.371 23.3505C277.371 23.531 277.398 23.7137 277.454 23.8951ZM407.852 58.1018C408.183 58.3653 408.576 58.4929 408.968 58.4929C409.501 58.4929 410.028 58.2571 410.384 57.8039C410.645 57.4712 410.772 57.0749 410.772 56.6808C410.772 56.1454 410.537 55.616 410.087 55.2581C388.05 37.7396 361.61 27.4117 333.627 25.3915C332.644 25.3055 331.772 26.0704 331.701 27.0692C331.697 27.1136 331.695 27.1583 331.695 27.2021C331.696 28.1438 332.42 28.9388 333.369 29.0065C360.627 30.976 386.384 41.0365 407.852 58.1018ZM423.572 88.6946C423.927 89.1617 424.463 89.4066 425.005 89.4066C425.387 89.4066 425.772 89.2845 426.099 89.0332C426.562 88.677 426.805 88.1392 426.806 87.5946C426.807 87.2089 426.686 86.8218 426.435 86.493C403.122 55.8428 367.839 37.2365 329.631 35.442C328.65 35.3891 327.794 36.1689 327.748 37.1681C327.746 37.1973 327.745 37.2267 327.745 37.255C327.746 38.2168 328.498 39.0178 329.464 39.0631C366.605 40.8068 400.907 58.8977 423.572 88.6946ZM216.802 117.794C216.548 117.794 216.292 117.74 216.046 117.626C215.388 117.32 215.001 116.664 215 115.98C215 115.726 215.054 115.466 215.168 115.219C230.567 81.7693 261.016 56.8773 296.622 48.6318C297.592 48.409 298.558 49.0167 298.782 49.9922C298.813 50.129 298.828 50.2657 298.828 50.4009C298.828 51.226 298.263 51.9718 297.43 52.1653C262.902 60.1603 233.374 84.3019 218.439 116.743C218.134 117.404 217.483 117.794 216.802 117.794ZM428.561 116.743C428.867 117.404 429.518 117.794 430.199 117.794C430.452 117.794 430.709 117.74 430.955 117.626C431.612 117.32 431.999 116.664 432 115.98C432 115.726 431.946 115.466 431.833 115.219C416.435 81.7702 385.982 56.878 350.372 48.6318C349.4 48.409 348.435 49.0167 348.211 49.9922C348.179 50.129 348.164 50.2657 348.164 50.4009C348.165 51.226 348.729 51.9718 349.563 52.1653C384.095 60.1611 413.627 84.3027 428.561 116.743ZM218.737 143.993C218.608 143.993 218.478 143.979 218.346 143.95C217.505 143.763 216.932 143.014 216.932 142.181C216.932 142.052 216.946 141.921 216.975 141.788C225.59 102.595 254.776 71.3163 293.144 60.1595C294.101 59.8799 295.099 60.4353 295.376 61.3969C295.425 61.5661 295.448 61.7357 295.448 61.904C295.446 62.6899 294.933 63.4126 294.145 63.6416C257.046 74.4296 228.824 104.674 220.495 142.571C220.31 143.417 219.564 143.993 218.737 143.993ZM428.255 144C427.428 144 426.683 143.424 426.497 142.578C418.175 104.679 389.954 74.4318 352.847 63.6416C352.059 63.4126 351.546 62.6899 351.545 61.904C351.545 61.7357 351.568 61.5661 351.617 61.3969C351.893 60.4353 352.894 59.8799 353.848 60.1595C392.225 71.3185 421.411 102.6 430.018 141.796C430.046 141.927 430.061 142.059 430.061 142.189C430.06 143.021 429.487 143.77 428.646 143.957C428.514 143.986 428.384 144 428.255 144ZM221.985 89.4067C221.603 89.4067 221.218 89.2846 220.892 89.0333C220.429 88.677 220.185 88.1392 220.184 87.5946C220.184 87.209 220.304 86.8219 220.555 86.4931C243.869 55.8428 279.153 37.2365 317.36 35.4421C318.357 35.3885 319.198 36.1689 319.243 37.1682C319.245 37.1973 319.246 37.2267 319.246 37.255C319.245 38.2168 318.493 39.0179 317.527 39.0632C280.385 40.8069 246.084 58.8978 223.418 88.6947C223.063 89.1617 222.527 89.4067 221.985 89.4067ZM238.023 58.4929C237.49 58.4929 236.963 58.2571 236.608 57.8039C236.346 57.4712 236.219 57.0749 236.219 56.6808C236.219 56.1454 236.453 55.616 236.904 55.2581C258.941 37.7403 285.38 27.4126 313.364 25.3915C314.34 25.3055 315.22 26.0704 315.29 27.0692C315.293 27.1136 315.295 27.1583 315.295 27.2021C315.294 28.1438 314.57 28.9388 313.621 29.0065C286.362 30.976 260.607 41.0373 239.138 58.1018C238.808 58.3653 238.414 58.4929 238.023 58.4929Z" fill="#65A16A"/>
</g>
<path d="M449.3 183.9V151.2L548.3 18H599.3L502.4 151.2L478.7 144.3H644V183.9H449.3ZM562.4 228V183.9L563.9 144.3V105H609.8V228H562.4Z" fill="#65A16A"/>
<defs>
<clipPath id="clip0_200_1738">
<rect width="217" height="210" fill="white" transform="translate(215 15)"/>
</clipPath>
</defs>
</svg>
